<svg width="106" height="64" viewBox="0 0 106 68" fill="none" xmlns="http://www.w3.org/2000/svg">
    <path d="M59.0795 64.6471C30.0095 64.6471 6.44952 50.4921 6.44952 33.0121C6.44952 15.5511 30.0095 1.37709 59.0795 1.37709C63.7725 1.37709 68.3135 1.73809 72.6455 2.44109C67.2115 1.37709 61.4165 0.788086 55.3745 0.788086C24.8415 0.788086 0.103516 15.6651 0.103516 34.0001C0.103516 52.3541 24.8415 67.2121 55.3745 67.2121C77.9085 67.2121 97.2885 59.0991 105.896 47.4711C97.1555 57.6741 79.4665 64.6471 59.0795 64.6471Z" fill="white"/>
    <path opacity="0.6" d="M20.8716 13.8218H24.1396C25.8116 13.8218 26.8376 14.3918 26.2106 16.7478C25.6406 18.9518 24.1776 19.6358 22.5246 19.6358H19.3516L20.8716 13.8218ZM21.9546 18.1728H22.5056C23.3226 18.1728 23.6456 17.6408 23.8926 16.6718C24.1586 15.6648 24.0826 15.1518 23.2846 15.1518H22.7336L21.9546 18.1728Z" fill="white"/>
    <path opacity="0.6" d="M28.9842 17.2608C28.8322 17.8118 28.8892 18.2298 29.4212 18.2298C30.0102 18.2298 30.2382 17.8308 30.3712 17.2798L31.2832 13.8218H33.4682L32.5752 17.2418C32.0812 19.1228 30.7702 19.7308 29.0032 19.7308C27.3882 19.7308 26.2862 19.0658 26.7232 17.3558L27.6542 13.8218H29.8772L28.9842 17.2608Z" fill="white"/>
    <path opacity="0.6" d="M39.6619 15.5318H37.7049L36.6219 19.6168H34.3989L35.4629 15.5318H33.5059L33.9619 13.8218H40.1179L39.6619 15.5318Z" fill="white"/>
    <path opacity="0.6" d="M43.4051 17.8498L42.9491 19.6168H40.7071L41.1821 17.8498L40.0801 13.8218H42.4931L42.7781 16.2538L44.3361 13.8218H46.6541L43.4051 17.8498Z" fill="white"/>
    <path opacity="0.6" d="M49.104 13.8218H54.101L53.721 15.2088H50.985L50.738 16.1588H53.398L53.018 17.5458H50.358L49.826 19.6168H47.584L49.104 13.8218Z" fill="white"/>
    <path opacity="0.6" d="M54.6709 13.8218H58.2809C59.6679 13.8218 60.4089 14.2588 60.1239 15.3608C59.8959 16.2538 59.2119 16.7098 58.3379 16.8998V16.9188C58.7939 16.9948 59.0219 17.2418 59.1549 17.5458C59.3259 18.1538 59.0789 19.0658 59.1549 19.6358H56.8369C56.8369 19.2178 57.0649 18.3058 56.9699 17.9638C56.9129 17.6978 56.6849 17.6598 56.4189 17.6598H55.9249L55.4119 19.6358H53.1699L54.6709 13.8218ZM56.1339 16.3488H56.7229C57.1789 16.3488 57.6349 16.2918 57.8059 15.7028C57.9389 15.1708 57.5399 15.0948 57.0839 15.0948H56.4759L56.1339 16.3488Z" fill="white"/>
    <path opacity="0.6" d="M61.1503 13.8218H66.1853L65.8243 15.2088H62.9553L62.7463 16.0448H65.4823L65.1023 17.4318H62.3853L62.1763 18.2298H65.0833L64.7223 19.6168H59.6113L61.1503 13.8218Z" fill="white"/>
    <path opacity="0.6" d="M66.8501 13.8218H71.8851L71.5241 15.2088H68.6741L68.4461 16.0448H71.1821L70.8211 17.4318H68.0851L67.8761 18.2298H70.7831L70.4221 19.6168H65.3301L66.8501 13.8218Z" fill="white"/>
    <path opacity="0.6" d="M55.9257 47.3193H56.8377L57.8067 53.3233H56.8757L56.6667 51.8033H53.7217L52.7147 53.3233H51.8027L55.9257 47.3193ZM56.1347 48.1363L54.1587 51.1003H56.5527L56.1347 48.1363Z" fill="white"/>
    <path opacity="0.6" d="M60.2391 47.3193H61.6641L62.2341 52.3163L65.3881 47.3193H66.8131L65.2361 53.3233H64.3811L65.7491 48.1363H65.7301L62.3671 53.3233H61.5311L60.9041 48.1363H60.8851L59.5361 53.3233H58.6621L60.2391 47.3193Z" fill="white"/>
    <path opacity="0.6" d="M68.3895 47.3193H71.7525L71.5625 48.0793H69.0545L68.5985 49.8273H70.8785L70.6695 50.5873H68.3895L67.8765 52.5633H70.3845L70.1755 53.3233H66.8125L68.3895 47.3193Z" fill="white"/>
    <path opacity="0.6" d="M73.0823 47.3193H74.5453C75.7233 47.3193 76.8254 47.5093 76.4453 48.9533C76.2553 49.6753 75.5713 50.2073 74.8493 50.3213V50.3403C75.0963 50.4353 75.1913 50.5683 75.2673 50.9483L75.7803 53.3423H74.7923L74.4123 51.2713C74.2983 50.6823 74.0133 50.6823 73.5573 50.6823H73.0443L72.3413 53.3423H71.4863L73.0823 47.3193ZM73.2533 49.9033H73.9753C74.7923 49.9033 75.3623 49.5423 75.5143 48.9723C75.6473 48.4213 75.3243 48.0793 74.5453 48.0793H73.7283L73.2533 49.9033Z" fill="white"/>
    <path opacity="0.6" d="M78.3836 47.3193H79.2386L77.6616 53.3233H76.8066L78.3836 47.3193Z" fill="white"/>
    <path opacity="0.6" d="M84.6529 48.3071C84.3299 48.0791 83.9499 47.9651 83.4939 47.9651C82.1069 47.9651 80.9289 48.9721 80.5679 50.3211C80.2069 51.7271 80.9669 52.6771 82.2209 52.6771C82.6579 52.6771 83.2469 52.5631 83.6079 52.3921L83.4369 53.2281C82.9239 53.4181 82.3729 53.4371 82.0119 53.4371C80.1119 53.4371 79.1619 52.2211 79.6749 50.3021C80.1689 48.4591 81.8219 47.2241 83.6649 47.2241C84.1209 47.2241 84.5579 47.3001 84.938 47.4901L84.6529 48.3071Z" fill="white"/>
    <path opacity="0.6" d="M87.9218 47.3193H88.8338L89.8028 53.3233H88.8718L88.6628 51.8033H85.7178L84.7108 53.3233H83.7988L87.9218 47.3193ZM88.1308 48.1363L86.1548 51.1003H88.5488L88.1308 48.1363Z" fill="white"/>
    <path opacity="0.6" d="M94.7232 48.2311C94.3242 48.0601 94.1152 47.9841 93.6592 47.9841C93.1842 47.9841 92.5572 48.1551 92.4052 48.7821C92.1012 49.9411 94.7612 49.6751 94.2292 51.6511C93.8872 52.9241 92.7662 53.4371 91.5692 53.4371C91.1512 53.4371 90.7712 53.3231 90.4102 53.1901L90.7142 52.3921C90.9802 52.5061 91.4362 52.6771 91.8922 52.6771C92.3862 52.6771 93.1462 52.4111 93.3362 51.6891C93.6972 50.3401 91.0182 50.7201 91.4932 48.8581C91.7782 47.7941 92.7662 47.2241 93.8492 47.2241C94.2482 47.2241 94.7042 47.3001 95.0652 47.4331L94.7232 48.2311Z" fill="white"/>
    <path d="M92.0438 34.779H87.5978L86.3248 21.251H73.1388L57.8438 46.198H67.3818L70.3268 40.802H78.4018L78.6298 46.198H88.6618L88.1298 40.555H90.5048L92.0438 34.779ZM73.2338 34.779L78.1358 26.59H78.2118L78.7818 34.779H73.2338Z" fill="white"/>
    <path d="M68.2565 27.2359L71.9235 21.2319H48.4585L46.9005 27.1789C46.2925 22.5429 42.5305 21.2319 37.3245 21.2319H23.2835H18.7045L17.2035 27.0079H21.7635L16.7285 46.1789H30.3705C35.6525 46.1789 40.4215 44.5639 43.5565 39.9089L39.9465 53.6649C39.9465 53.6649 44.6585 53.6269 49.6175 53.6269L53.8355 37.2869H62.1195L65.7865 31.2829H55.4125L56.4765 27.2359H68.2565ZM36.2605 33.5249C35.1775 37.6669 33.7905 39.9659 30.3135 39.9659H27.9195L31.3205 27.0269H33.6765C37.1155 27.0269 37.4005 29.2499 36.2605 33.5249Z" fill="white"/>
</svg>
