<svg width="115" height="71" version="1.1" id="Layer_1" xmlns="http://www.w3.org/2000/svg" xmlns:xlink="http://www.w3.org/1999/xlink" x="0px" y="0px"
     viewBox="0 0 600 400" style="enable-background:new 0 0 600 400;" xml:space="preserve">
<style type="text/css">
	.st0{fill:#004990;}
	.st1{fill:#EF3E42;}
</style>
    <g>
	<path class="st0" d="M332,361.3c-153,0-277-74.5-277-166.5c0-91.9,124-166.5,277-166.5c24.7,0,48.6,1.9,71.4,5.6
		c-28.6-5.6-59.1-8.7-90.9-8.7C151.8,25.2,21.6,103.5,21.6,200c0,96.6,130.2,174.8,290.9,174.8c118.6,0,220.6-42.7,265.9-103.9
		C532.4,324.6,439.3,361.3,332,361.3L332,361.3z"/>
        <path class="st1" d="M130.9,93.8h17.2c8.8,0,14.2,3,10.9,15.4c-3,11.6-10.7,15.2-19.4,15.2h-16.7L130.9,93.8L130.9,93.8z
		 M136.6,116.7h2.9c4.3,0,6-2.8,7.3-7.9c1.4-5.3,1-8-3.2-8h-2.9L136.6,116.7L136.6,116.7z"/>
        <path class="st1" d="M173.6,111.9c-0.8,2.9-0.5,5.1,2.3,5.1c3.1,0,4.3-2.1,5-5l4.8-18.2h11.5l-4.7,18c-2.6,9.9-9.5,13.1-18.8,13.1
		c-8.5,0-14.3-3.5-12-12.5l4.9-18.6h11.7L173.6,111.9L173.6,111.9z"/>
        <polygon class="st1" points="229.8,102.8 219.5,102.8 213.8,124.3 202.1,124.3 207.7,102.8 197.4,102.8 199.8,93.8 232.2,93.8
		229.8,102.8 	"/>
        <polygon class="st1" points="249.5,115 247.1,124.3 235.3,124.3 237.8,115 232,93.8 244.7,93.8 246.2,106.6 246.2,106.6
		254.4,93.8 266.6,93.8 249.5,115 	"/>
        <polygon class="st1" points="279.5,93.8 305.8,93.8 303.8,101.1 289.4,101.1 288.1,106.1 302.1,106.1 300.1,113.4 286.1,113.4
		283.3,124.3 271.5,124.3 279.5,93.8 	"/>
        <path class="st1" d="M308.8,93.8h19c7.3,0,11.2,2.3,9.7,8.1c-1.2,4.7-4.8,7.1-9.4,8.1l0,0.1c2.4,0.4,3.6,1.7,4.3,3.3
		c0.9,3.2-0.4,8,0,11h-12.2c0-2.2,1.2-7,0.7-8.8c-0.3-1.4-1.5-1.6-2.9-1.6h-2.6l-2.7,10.4h-11.8L308.8,93.8L308.8,93.8z
		 M316.5,107.1h3.1c2.4,0,4.8-0.3,5.7-3.4c0.7-2.8-1.4-3.2-3.8-3.2h-3.2L316.5,107.1L316.5,107.1z"/>
        <polygon class="st1" points="342.9,93.8 369.4,93.8 367.5,101.1 352.4,101.1 351.3,105.5 365.7,105.5 363.7,112.8 349.4,112.8
		348.3,117 363.6,117 361.7,124.3 334.8,124.3 342.9,93.8 	"/>
        <polygon class="st1" points="372.9,93.8 399.4,93.8 397.5,101.1 382.5,101.1 381.3,105.5 395.7,105.5 393.8,112.8 379.4,112.8
		378.3,117 393.6,117 391.7,124.3 364.9,124.3 372.9,93.8 	"/>
        <path class="st1" d="M315.4,270.1h4.8l5.1,31.6h-4.9l-1.1-8h-15.5l-5.3,8h-4.8L315.4,270.1L315.4,270.1z M316.5,274.4L306.1,290
		h12.6L316.5,274.4L316.5,274.4z"/>
        <polygon class="st1" points="338.1,270.1 345.6,270.1 348.6,296.4 365.2,270.1 372.7,270.1 364.4,301.7 359.9,301.7 367.1,274.4
		367,274.4 349.3,301.7 344.9,301.7 341.6,274.4 341.5,274.4 334.4,301.7 329.8,301.7 338.1,270.1 	"/>
        <polygon class="st1" points="381,270.1 398.7,270.1 397.7,274.1 384.5,274.1 382.1,283.3 394.1,283.3 393,287.3 381,287.3
		378.3,297.7 391.5,297.7 390.4,301.7 372.7,301.7 381,270.1 	"/>
        <path class="st1" d="M405.7,270.1h7.7c6.2,0,12,1,10,8.6c-1,3.8-4.6,6.6-8.4,7.2l0,0.1c1.3,0.5,1.8,1.2,2.2,3.2l2.7,12.6h-5.2
		l-2-10.9c-0.6-3.1-2.1-3.1-4.5-3.1h-2.7l-3.7,14h-4.5L405.7,270.1L405.7,270.1z M406.6,283.7h3.8c4.3,0,7.3-1.9,8.1-4.9
		c0.7-2.9-1-4.7-5.1-4.7h-4.3L406.6,283.7L406.6,283.7z"/>
        <polygon class="st1" points="433.6,270.1 438.1,270.1 429.8,301.7 425.3,301.7 433.6,270.1 	"/>
        <path class="st1" d="M466.6,275.3c-1.7-1.2-3.7-1.8-6.1-1.8c-7.3,0-13.5,5.3-15.4,12.4c-1.9,7.4,2.1,12.4,8.7,12.4
		c2.3,0,5.4-0.6,7.3-1.5l-0.9,4.4c-2.7,1-5.6,1.1-7.5,1.1c-10,0-15-6.4-12.3-16.5c2.6-9.7,11.3-16.2,21-16.2c2.4,0,4.7,0.4,6.7,1.4
		L466.6,275.3L466.6,275.3z"/>
        <path class="st1" d="M483.8,270.1h4.8l5.1,31.6h-4.9l-1.1-8h-15.5l-5.3,8h-4.8L483.8,270.1L483.8,270.1z M484.9,274.4L474.5,290
		h12.6L484.9,274.4L484.9,274.4z"/>
        <path class="st1" d="M519.6,274.9c-2.1-0.9-3.2-1.3-5.6-1.3c-2.5,0-5.8,0.9-6.6,4.2c-1.6,6.1,12.4,4.7,9.6,15.1
		c-1.8,6.7-7.7,9.4-14,9.4c-2.2,0-4.2-0.6-6.1-1.3l1.6-4.2c1.4,0.6,3.8,1.5,6.2,1.5c2.6,0,6.6-1.4,7.6-5.2
		c1.9-7.1-12.2-5.1-9.7-14.9c1.5-5.6,6.7-8.6,12.4-8.6c2.1,0,4.5,0.4,6.4,1.1L519.6,274.9L519.6,274.9z"/>
        <path class="st0" d="M505.5,204.1h-23.4l-6.7-71.2H406l-80.5,131.3h50.2l15.5-28.4h42.5l1.2,28.4h52.8l-2.8-29.7h12.5L505.5,204.1
		L505.5,204.1z M406.5,204.1l25.8-43.1h0.4l3,43.1H406.5L406.5,204.1z"/>
        <path class="st0" d="M380.3,164.4l19.3-31.6H276.1l-8.2,31.3c-3.2-24.4-23-31.3-50.4-31.3h-73.9h0h-24.1l-7.9,30.4h24l-26.5,100.9
		h71.8c27.8,0,52.9-8.5,69.4-33l-19,72.4c0,0,24.8-0.2,50.9-0.2l22.2-86H348l19.3-31.6h-54.6l5.6-21.3H380.3L380.3,164.4z
		 M211.9,197.5c-5.7,21.8-13,33.9-31.3,33.9h-12.6l17.9-68.1h12.4C216.4,163.3,217.9,175,211.9,197.5L211.9,197.5z"/>
</g>
</svg>
