<svg width="233" height="195" viewBox="0 0 233 202" fill="none" xmlns="http://www.w3.org/2000/svg">
    <path d="M24.5408 33.1226C23.0222 33.7507 21.4636 34.5569 20.629 35.9702C19.7451 37.4631 19.8509 39.317 20.0155 41.0443C21.4495 56.0251 25.2272 71.9574 18.7037 85.5273C15.5372 92.1107 10.2408 97.3863 6.02815 103.365C1.8155 109.344 -1.36515 116.808 0.590724 123.842C2.97915 132.436 11.8934 137.201 17.9021 143.815C21.835 148.139 24.5925 153.393 28.2621 157.942C31.9317 162.491 36.9601 166.499 42.8183 166.766C51.2436 167.153 58.0986 159.899 66.3593 158.219C74.8223 156.499 83.3439 160.877 90.206 166.117C97.068 171.357 103.309 177.707 111.304 180.978C120.134 184.595 130.087 184.041 139.383 186.214C147.845 188.194 155.636 192.406 164.038 194.651C172.44 196.897 182.287 196.761 188.797 191.026C197.281 183.526 196.613 170.167 202.032 160.246C207.065 151.028 216.917 145.525 223.549 137.376C235.481 122.71 235.091 100.292 224.959 84.3414C214.827 68.3903 196.474 58.732 177.708 56.2172C169.245 55.0852 160.53 55.2399 152.394 52.6642C130.616 45.7738 117.656 21.0855 95.4224 15.9481C81.2893 12.6881 67.5442 18.334 55.5057 25.283C45.0563 31.3156 35.4156 28.6251 24.5408 33.1226Z" fill="white"/>
    <g opacity="0.1">
        <path opacity="0.1" d="M147.569 140.493C147.569 140.493 147.073 141.484 146.394 142.675C145.356 142.122 144.353 141.507 143.39 140.833L143.183 140.687L143.072 140.608L144.248 139.314L147.569 140.493Z" fill="black"/>
    </g>
    <g opacity="0.1">
        <path opacity="0.1" d="M139.838 141.777C139.533 142.066 139.285 142.41 139.107 142.79C137.435 142.037 135.679 141.088 135.04 140.737L134.99 140.711C135.309 140.31 135.674 139.949 136.079 139.635C136.079 139.635 140.698 141.027 139.838 141.777Z" fill="black"/>
    </g>
    <g opacity="0.1">
        <path opacity="0.1" d="M148.975 72.3221C148.342 73.1444 147.496 73.7785 146.528 74.1561C145.56 74.5336 144.507 74.6402 143.483 74.4643C143.424 73.2643 143.175 72.0667 142.522 71.3354C140.803 69.4089 148.105 69.73 148.105 69.73C148.329 70.6147 148.62 71.4812 148.975 72.3221Z" fill="black"/>
    </g>
    <g opacity="0.1">
        <path opacity="0.1" d="M160.591 82.4305C159.801 82.7212 156.742 83.9516 156.404 85.7117C156.195 84.9276 156.037 84.1306 155.934 83.3258L159.695 81.2915C160.052 81.6219 160.354 82.0063 160.591 82.4305Z" fill="black"/>
    </g>
    <g opacity="0.1">
        <path opacity="0.1" d="M137.261 82.5781C136.967 83.4155 136.63 84.2369 136.25 85.039C136.104 83.9796 135.505 81.2704 133.133 80.3962C133.603 79.7563 133.932 79.3696 133.932 79.3696L137.261 82.5781Z" fill="black"/>
    </g>
    <g opacity="0.1">
        <path opacity="0.1" d="M153.796 109.015C153.796 109.015 148.916 108.628 144.682 108.445L144.257 108.427C143.655 108.403 143.081 108.384 142.519 108.37C138.41 108.272 133.763 106.84 132.973 106.589C133.269 106.131 133.589 105.689 133.932 105.265L140.375 106.671C140.375 106.671 141.391 106.995 143.648 107.991L139.945 105.265L151.229 107.299C151.229 107.299 151.622 107.25 153.697 108.408L153.796 109.015Z" fill="black"/>
    </g>
    <g opacity="0.1">
        <path opacity="0.1" d="M140.347 67.3864C141.21 67.3864 141.887 66.4747 142.75 66.5215C143.196 66.545 143.579 66.8286 143.948 67.084C145.343 68.0468 146.895 68.7606 148.535 69.1933C149.172 69.3621 149.847 69.4886 150.486 69.334C151.126 69.1793 151.725 68.6777 151.798 68.0238C151.816 67.7356 151.777 67.4467 151.685 67.1731C150.961 64.6589 149.323 62.5038 147.092 61.1287C146.198 60.5827 145.107 60.1655 144.118 60.5077C143.224 60.8147 142.648 61.649 142.002 62.3357C141.515 62.8499 140.961 63.2975 140.356 63.6669C139.886 63.9505 139.181 64.1357 138.911 64.656C138.401 65.6263 139.202 67.377 140.347 67.3864Z" fill="black"/>
    </g>
    <path opacity="0.05" d="M162.655 88.4116C162.655 88.4116 161.797 90.4459 162.225 91.0881L162.655 88.4116Z" fill="black"/>
    <path opacity="0.05" d="M128.402 87.7693C128.402 87.7693 128.833 89.8036 128.402 90.4458V87.7693Z" fill="black"/>
    <path d="M86.498 23C84.2236 23 82.0001 22.3255 80.109 21.0619C78.2178 19.7983 76.7438 18.0022 75.8734 15.9009C75.003 13.7995 74.7753 11.4872 75.219 9.25646C75.6628 7.02568 76.758 4.97657 78.3663 3.36827C79.9746 1.75997 82.0237 0.664704 84.2545 0.220974C86.4853 -0.222756 88.7976 0.00498404 90.8989 0.875391C93.0003 1.7458 94.7963 3.21979 96.0599 5.11095C97.3236 7.00212 97.998 9.22552 97.998 11.5C97.9947 14.549 96.782 17.4721 94.626 19.628C92.4701 21.7839 89.547 22.9966 86.498 23ZM86.498 1.76924C84.5735 1.76924 82.6921 2.33994 81.0919 3.40917C79.4917 4.4784 78.2445 5.99814 77.508 7.7762C76.7715 9.55427 76.5788 11.5108 76.9542 13.3984C77.3297 15.286 78.2565 17.0198 79.6173 18.3807C80.9782 19.7416 82.7121 20.6683 84.5997 21.0438C86.4872 21.4193 88.4438 21.2266 90.2219 20.4901C91.9999 19.7536 93.5197 18.5063 94.5889 16.9061C95.6581 15.3059 96.2288 13.4246 96.2288 11.5C96.2259 8.92014 95.1998 6.44677 93.3755 4.62253C91.5513 2.79829 89.0779 1.77215 86.498 1.76924Z" fill="#393762"/>
    <path d="M196.998 191H173.998V168H196.998V191ZM175.767 189.231H195.229V169.769H175.767V189.231Z" fill="#393762"/>
    <path d="M46.298 128.9C49.7774 128.9 52.598 126.079 52.598 122.6C52.598 119.121 49.7774 116.3 46.298 116.3C42.8187 116.3 39.998 119.121 39.998 122.6C39.998 126.079 42.8187 128.9 46.298 128.9Z" fill="url(#paint0_linear)"/>
    <path d="M129.5 92C129.5 121.547 105.547 145.5 76 145.5C46.4528 145.5 22.5 121.547 22.5 92C22.5 62.4528 46.4528 38.5 76 38.5C105.547 38.5 129.5 62.4528 129.5 92Z" fill="#ECE0D3" stroke="#393762"/>
    <path d="M58.166 103.1H55.2597V83.8345L49.4316 85.9751V83.3501L57.7128 80.2407H58.166V103.1ZM81.541 103.1H66.6347V101.022L74.5097 92.272C75.6764 90.9491 76.4785 89.8761 76.916 89.0532C77.3639 88.2199 77.5878 87.3605 77.5878 86.4751C77.5878 85.2876 77.2285 84.3136 76.5097 83.5532C75.791 82.7928 74.8326 82.4126 73.6347 82.4126C72.1972 82.4126 71.0774 82.8241 70.2753 83.647C69.4837 84.4595 69.0878 85.5949 69.0878 87.0532H66.1972C66.1972 84.9595 66.8691 83.2668 68.2128 81.9751C69.567 80.6834 71.3743 80.0376 73.6347 80.0376C75.7493 80.0376 77.4212 80.5949 78.6503 81.7095C79.8795 82.8136 80.4941 84.2876 80.4941 86.1313C80.4941 88.3709 79.067 91.0376 76.2128 94.1313L70.1191 100.741H81.541V103.1ZM87.791 88.2407C89.0722 86.6678 90.7389 85.8813 92.791 85.8813C96.3639 85.8813 98.166 87.897 98.1972 91.9282V103.1H95.3066V91.9126C95.2962 90.6938 95.0149 89.7928 94.4628 89.2095C93.9212 88.6261 93.0722 88.3345 91.916 88.3345C90.9785 88.3345 90.1555 88.5845 89.4472 89.0845C88.7389 89.5845 88.1868 90.2407 87.791 91.0532V103.1H84.9003V79.1001H87.791V88.2407Z" fill="#393762"/>
    <rect x="74.1992" y="46.1001" width="2.7" height="8.1" fill="#393762"/>
    <rect x="74.1992" y="130.7" width="2.7" height="8.1" fill="#393762"/>
    <rect x="112.9" y="93.8" width="2.7" height="8.1" transform="rotate(-90 112.9 93.8)" fill="#393762"/>
    <rect x="31" y="93.8" width="2.7" height="8.1" transform="rotate(-90 31 93.8)" fill="#393762"/>
    <rect x="96.6211" y="50.054" width="1.8" height="3.6" transform="rotate(31 96.6211 50.054)" fill="#393762"/>
    <rect x="114.955" y="70.0906" width="1.8" height="3.6" transform="rotate(70 114.955 70.0906)" fill="#393762"/>
    <rect x="113.475" y="110.325" width="1.8" height="3.6" transform="rotate(107.135 113.475 110.325)" fill="#393762"/>
    <rect x="97.9824" y="131.181" width="1.8" height="3.6" transform="rotate(146.135 97.9824 131.181)" fill="#393762"/>
    <rect x="37.6289" y="71.6821" width="1.8" height="3.6" transform="rotate(-68.54 37.6289 71.6821)" fill="#393762"/>
    <rect x="54.6445" y="52.0547" width="1.8" height="3.6" transform="rotate(-29.54 54.6445 52.0547)" fill="#393762"/>
    <rect x="56.293" y="133.547" width="1.8" height="3.6" transform="rotate(-149.96 56.293 133.547)" fill="#393762"/>
    <rect x="39.4219" y="113.791" width="1.8" height="3.6" transform="rotate(-110.96 39.4219 113.791)" fill="#393762"/>
    <g clip-path="url(#clip0)">
        <path d="M216.198 118.121C216.198 118.121 206.364 123.125 204.174 124.02L122.546 157.402L99.3704 135.55L104.9 129.731L127.817 140.289L150.19 128.292L115.69 106.804L126.876 100.81L172.567 116.299L190.955 109.174C198.874 106.106 207.867 108.373 213.385 114.829L216.198 118.121Z" fill="#393762"/>
        <path d="M206.279 123.912L206.279 123.912L119.314 159.477L91.8606 134.083L97.1756 128.488L121.348 139.625L121.575 139.73L121.794 139.612L145.711 126.787L146.472 126.379L145.739 125.922L109.593 103.409L120.597 97.5113L169.235 114L169.407 114.058L169.576 113.993L190.614 105.841C198.109 102.936 206.618 104.929 212.045 110.859L218.509 117.922C218.228 118.064 217.856 118.252 217.417 118.474C216.395 118.99 215.009 119.689 213.55 120.416C210.62 121.878 207.427 123.443 206.279 123.912Z" stroke="black"/>
    </g>
    <defs>
        <linearGradient id="paint0_linear" x1="46.298" y1="116.3" x2="46.298" y2="128.9" gradientUnits="userSpaceOnUse">
            <stop stop-color="#112B4C"/>
            <stop offset="1" stop-color="#1D2934"/>
        </linearGradient>
        <clipPath id="clip0">
            <rect width="138" height="138" fill="white" transform="translate(85 64)"/>
        </clipPath>
    </defs>
</svg>
