<svg width="249" height="195" viewBox="0 0 249 195" fill="none" xmlns="http://www.w3.org/2000/svg">
    <path d="M248.647 93.024C253.855 134.671 199.939 143.075 186.408 166.587C176.697 183.46 160.693 195 134.363 195C105.509 195 65.407 181.141 34.5809 161.593C-1.9206 138.446 38.2269 86.4072 0 70.0599C36.7292 45.7372 43.2519 0 75.7279 0C108.204 0 113.583 33.8092 134.363 50.0853C153.906 65.3929 227.292 42.4252 248.647 93.024Z" fill="white"/>
    <rect x="38.0918" y="37.2959" width="194.673" height="127.02" stroke="#393762"/>
    <rect x="38.0918" y="154.908" width="194.673" height="9.40816" fill="#393762" stroke="#393762"/>
    <path d="M99.7626 187.214L109.736 164.275H152.795L162.768 187.214H99.7626Z" stroke="#393762"/>
    <mask id="path-5-inside-1" fill="white">
        <path d="M115.491 45.9306L110.52 51.4795L104.971 46.5083L109.942 40.9595L115.491 45.9306ZM110.475 50.6702L114.681 45.975L109.986 41.7687L105.78 46.4639L110.475 50.6702Z"/>
    </mask>
    <path d="M115.491 45.9306L116.98 47.2651L118.315 45.7755L116.825 44.441L115.491 45.9306ZM110.52 51.4795L109.185 52.9691L110.675 54.3036L112.009 52.814L110.52 51.4795ZM104.971 46.5083L103.481 45.1738L102.147 46.6634L103.636 47.9979L104.971 46.5083ZM109.942 40.9595L111.276 39.4698L109.787 38.1353L108.452 39.6249L109.942 40.9595ZM110.475 50.6702L109.141 52.1599L110.63 53.4944L111.965 52.0048L110.475 50.6702ZM114.681 45.975L116.171 47.3096L117.506 45.82L116.016 44.4854L114.681 45.975ZM109.986 41.7687L111.321 40.2791L109.831 38.9445L108.497 40.4341L109.986 41.7687ZM105.78 46.4639L104.29 45.1293L102.956 46.6189L104.445 47.9535L105.78 46.4639ZM114.001 44.5961L109.03 50.1449L112.009 52.814L116.98 47.2651L114.001 44.5961ZM111.854 49.9898L106.305 45.0187L103.636 47.9979L109.185 52.9691L111.854 49.9898ZM106.46 47.8428L111.431 42.294L108.452 39.6249L103.481 45.1738L106.46 47.8428ZM108.607 42.4491L114.156 47.4202L116.825 44.441L111.276 39.4698L108.607 42.4491ZM111.965 52.0048L116.171 47.3096L113.192 44.6405L108.985 49.3357L111.965 52.0048ZM116.016 44.4854L111.321 40.2791L108.652 43.2583L113.347 47.4647L116.016 44.4854ZM108.497 40.4341L104.29 45.1293L107.27 47.7984L111.476 43.1032L108.497 40.4341ZM104.445 47.9535L109.141 52.1599L111.81 49.1806L107.114 44.9742L104.445 47.9535Z" fill="black" mask="url(#path-5-inside-1)"/>
    <mask id="path-7-inside-2" fill="white">
        <path d="M171.364 64.5561L166.393 70.1049L160.844 65.1338L165.815 59.5849L171.364 64.5561ZM166.348 69.2957L170.555 64.6005L165.859 60.3942L161.653 65.0894L166.348 69.2957Z"/>
    </mask>
    <path d="M171.364 64.5561L172.853 65.8906L174.188 64.401L172.698 63.0665L171.364 64.5561ZM166.393 70.1049L165.058 71.5946L166.548 72.9291L167.882 71.4395L166.393 70.1049ZM160.844 65.1338L159.354 63.7992L158.02 65.2889L159.509 66.6234L160.844 65.1338ZM165.815 59.5849L167.149 58.0953L165.66 56.7608L164.325 58.2504L165.815 59.5849ZM166.348 69.2957L165.014 70.7853L166.503 72.1199L167.838 70.6303L166.348 69.2957ZM170.555 64.6005L172.044 65.9351L173.379 64.4454L171.889 63.1109L170.555 64.6005ZM165.859 60.3942L167.194 58.9045L165.704 57.57L164.37 59.0596L165.859 60.3942ZM161.653 65.0894L160.163 63.7548L158.829 65.2444L160.318 66.579L161.653 65.0894ZM169.874 63.2215L164.903 68.7704L167.882 71.4395L172.853 65.8906L169.874 63.2215ZM167.727 68.6153L162.178 63.6442L159.509 66.6234L165.058 71.5946L167.727 68.6153ZM162.333 66.4683L167.305 60.9195L164.325 58.2504L159.354 63.7992L162.333 66.4683ZM164.48 61.0746L170.029 66.0457L172.698 63.0665L167.149 58.0953L164.48 61.0746ZM167.838 70.6303L172.044 65.9351L169.065 63.266L164.859 67.9612L167.838 70.6303ZM171.889 63.1109L167.194 58.9045L164.525 61.8838L169.22 66.0902L171.889 63.1109ZM164.37 59.0596L160.163 63.7548L163.143 66.4239L167.349 61.7287L164.37 59.0596ZM160.318 66.579L165.014 70.7853L167.683 67.8061L162.988 63.5997L160.318 66.579Z" fill="black" mask="url(#path-7-inside-2)"/>
    <mask id="path-9-inside-3" fill="white">
        <path d="M209.545 93.8627L204.574 99.4116L199.025 94.4404L203.997 88.8916L209.545 93.8627ZM204.53 98.6024L208.736 93.9072L204.041 89.7008L199.835 94.396L204.53 98.6024Z"/>
    </mask>
    <path d="M209.545 93.8627L211.035 95.1973L212.37 93.7076L210.88 92.3731L209.545 93.8627ZM204.574 99.4116L203.24 100.901L204.729 102.236L206.064 100.746L204.574 99.4116ZM199.025 94.4404L197.536 93.1059L196.201 94.5955L197.691 95.9301L199.025 94.4404ZM203.997 88.8916L205.331 87.402L203.841 86.0674L202.507 87.557L203.997 88.8916ZM204.53 98.6024L203.195 100.092L204.685 101.427L206.019 99.9369L204.53 98.6024ZM208.736 93.9072L210.226 95.2417L211.56 93.7521L210.071 92.4175L208.736 93.9072ZM204.041 89.7008L205.376 88.2112L203.886 86.8766L202.551 88.3663L204.041 89.7008ZM199.835 94.396L198.345 93.0614L197.01 94.5511L198.5 95.8856L199.835 94.396ZM208.056 92.5282L203.085 98.077L206.064 100.746L211.035 95.1973L208.056 92.5282ZM205.909 97.922L200.36 92.9508L197.691 95.9301L203.24 100.901L205.909 97.922ZM200.515 95.775L205.486 90.2261L202.507 87.557L197.536 93.1059L200.515 95.775ZM202.662 90.3812L208.211 95.3524L210.88 92.3731L205.331 87.402L202.662 90.3812ZM206.019 99.9369L210.226 95.2417L207.247 92.5726L203.04 97.2678L206.019 99.9369ZM210.071 92.4175L205.376 88.2112L202.706 91.1904L207.402 95.3968L210.071 92.4175ZM202.551 88.3663L198.345 93.0614L201.324 95.7305L205.531 91.0354L202.551 88.3663ZM198.5 95.8856L203.195 100.092L205.864 97.1127L201.169 92.9064L198.5 95.8856Z" fill="black" mask="url(#path-9-inside-3)"/>
    <mask id="path-11-inside-4" fill="white">
        <path d="M70.7895 95.2875L65.8184 100.836L60.2695 95.8652L65.2407 90.3164L70.7895 95.2875ZM65.7739 100.027L69.9803 95.332L65.2851 91.1256L61.0788 95.8208L65.7739 100.027Z"/>
    </mask>
    <path d="M70.7895 95.2875L72.2792 96.6221L73.6137 95.1324L72.1241 93.7979L70.7895 95.2875ZM65.8184 100.836L64.4838 102.326L65.9735 103.661L67.308 102.171L65.8184 100.836ZM60.2695 95.8652L58.7799 94.5307L57.4454 96.0203L58.935 97.3549L60.2695 95.8652ZM65.2407 90.3164L66.5752 88.8268L65.0856 87.4922L63.7511 88.9818L65.2407 90.3164ZM65.7739 100.027L64.4394 101.517L65.929 102.851L67.2636 101.362L65.7739 100.027ZM69.9803 95.332L71.4699 96.6665L72.8045 95.1769L71.3148 93.8423L69.9803 95.332ZM65.2851 91.1256L66.6197 89.636L65.13 88.3014L63.7955 89.7911L65.2851 91.1256ZM61.0788 95.8208L59.5891 94.4863L58.2546 95.9759L59.7442 97.3104L61.0788 95.8208ZM69.2999 93.953L64.3288 99.5018L67.308 102.171L72.2792 96.6221L69.2999 93.953ZM67.1529 99.3468L61.6041 94.3756L58.935 97.3549L64.4838 102.326L67.1529 99.3468ZM61.7592 97.1998L66.7303 91.6509L63.7511 88.9818L58.7799 94.5307L61.7592 97.1998ZM63.9061 91.806L69.455 96.7772L72.1241 93.7979L66.5752 88.8268L63.9061 91.806ZM67.2636 101.362L71.4699 96.6665L68.4907 93.9974L64.2843 98.6926L67.2636 101.362ZM71.3148 93.8423L66.6197 89.636L63.9506 92.6152L68.6458 96.8216L71.3148 93.8423ZM63.7955 89.7911L59.5891 94.4863L62.5684 97.1553L66.7748 92.4602L63.7955 89.7911ZM59.7442 97.3104L64.4394 101.517L67.1085 98.5375L62.4133 94.3312L59.7442 97.3104Z" fill="black" mask="url(#path-11-inside-4)"/>
    <path d="M190.652 68.2903C190.41 68.2717 190.168 68.2617 189.92 68.2617H190.129C190.309 68.2617 190.484 68.2717 190.652 68.2903Z" fill="url(#paint0_linear)"/>
    <path d="M150.936 147.858C149.389 146.471 148.414 144.454 148.414 142.213V141.388C148.414 143.978 149.587 146.298 151.43 147.84C151.266 147.845 151.101 147.85 150.936 147.858ZM148.414 76.6578V75.837C148.414 71.6514 151.804 68.2617 155.989 68.2617H156.6C156.426 68.2617 156.251 68.2716 156.081 68.2902C151.785 68.664 148.414 72.2672 148.414 76.6578Z" fill="white"/>
    <path d="M156.08 68.2903C156.25 68.2717 156.425 68.2617 156.599 68.2617H156.813C156.566 68.2617 156.318 68.2717 156.08 68.2903Z" fill="url(#paint1_linear)"/>
    <path d="M138.482 133.908C137.995 137.003 137.346 140.098 136.537 143.193H96.7533C95.9441 140.098 95.2947 137.003 94.8085 133.908C93.3833 124.86 93.34 115.812 94.6853 106.764C95.2178 103.163 95.9741 99.5624 96.9498 95.9619C97.2961 95.822 97.6424 95.7037 97.9854 95.5711H135.302C135.648 95.7037 135.994 95.822 136.337 95.9619C137.313 99.5624 138.065 103.163 138.598 106.764C139.947 115.812 139.907 124.86 138.482 133.908Z" fill="#F6E1C0"/>
    <path opacity="0.8" d="M138.482 134.018H94.8085C93.3833 124.989 93.34 115.96 94.6853 106.93H138.598C139.947 115.96 139.907 124.989 138.482 134.018Z" fill="white"/>
    <path d="M97.6387 95.571H135.212V91.639H97.6387V95.571Z" fill="#E7C382"/>
    <path d="M96.7656 146.688H136.523V143.193H96.7656V146.688Z" fill="#E7C382"/>
    <mask id="path-20-inside-5" fill="white">
        <path fill-rule="evenodd" clip-rule="evenodd" d="M135.15 90.8655V94.8513L135.241 94.8529C135.377 94.9046 135.512 94.9543 135.647 95.0038C135.863 95.083 136.078 95.1619 136.292 95.2492C137.281 98.9003 138.044 102.551 138.584 106.202C139.952 115.378 139.912 124.553 138.466 133.728C137.973 136.867 137.315 140.581 136.494 143.719H136.479V146.688H96.1626V143.719H96.1515C95.331 140.581 94.6725 136.867 94.1795 133.728C92.7342 124.553 92.6903 115.378 94.0546 106.202C94.5945 102.551 95.3614 98.9003 96.3508 95.2492C96.5258 95.1785 96.7168 94.9514 96.9074 94.7247L96.9074 94.7247C96.9547 94.6685 97.0019 94.6123 97.0489 94.5585V90.8655H135.15Z"/>
    </mask>
    <path d="M135.15 94.8513H134.15V95.8342L135.133 95.8511L135.15 94.8513ZM135.15 90.8655H136.15V89.8655H135.15V90.8655ZM135.241 94.8529L135.599 93.919L135.435 93.8561L135.259 93.853L135.241 94.8529ZM135.647 95.0038L135.302 95.9426L135.302 95.9426L135.647 95.0038ZM136.292 95.2492L137.257 94.9876L137.127 94.5101L136.669 94.3232L136.292 95.2492ZM138.584 106.202L137.595 106.349L137.595 106.35L138.584 106.202ZM138.466 133.728L137.478 133.573L137.478 133.573L138.466 133.728ZM136.494 143.719V144.719H137.266L137.462 143.972L136.494 143.719ZM136.479 143.719V142.719H135.479V143.719H136.479ZM136.479 146.688V147.688H137.479V146.688H136.479ZM96.1626 146.688H95.1626V147.688H96.1626V146.688ZM96.1626 143.719H97.1626V142.719H96.1626V143.719ZM96.1515 143.719L95.1841 143.972L95.3794 144.719H96.1515V143.719ZM94.1795 133.728L95.1674 133.573L95.1673 133.573L94.1795 133.728ZM94.0546 106.202L95.0437 106.35L95.0438 106.349L94.0546 106.202ZM96.3508 95.2492L95.9762 94.322L95.5155 94.5081L95.3856 94.9876L96.3508 95.2492ZM96.9074 94.7247L97.6728 95.3683L97.6736 95.3673L96.9074 94.7247ZM96.9074 94.7247L96.1421 94.0811L96.1412 94.0821L96.9074 94.7247ZM97.0489 94.5585L97.802 95.2165L98.0489 94.9339V94.5585H97.0489ZM97.0489 90.8655V89.8655H96.0489V90.8655H97.0489ZM136.15 94.8513V90.8655H134.15V94.8513H136.15ZM135.259 93.853L135.167 93.8514L135.133 95.8511L135.224 95.8527L135.259 93.853ZM135.991 94.065C135.855 94.0151 135.727 93.9679 135.599 93.919L134.884 95.7868C135.027 95.8414 135.168 95.8934 135.302 95.9426L135.991 94.065ZM136.669 94.3232C136.436 94.2282 136.204 94.1432 135.991 94.065L135.302 95.9426C135.521 96.0227 135.719 96.0957 135.914 96.1751L136.669 94.3232ZM139.574 106.056C139.027 102.366 138.256 98.676 137.257 94.9876L135.326 95.5107C136.306 99.1245 137.06 102.737 137.595 106.349L139.574 106.056ZM139.454 133.884C140.915 124.609 140.956 115.331 139.574 106.055L137.595 106.35C138.948 115.425 138.908 124.498 137.478 133.573L139.454 133.884ZM137.462 143.972C138.295 140.784 138.96 137.03 139.454 133.884L137.478 133.573C136.986 136.703 136.334 140.377 135.527 143.466L137.462 143.972ZM136.479 144.719H136.494V142.719H136.479V144.719ZM137.479 146.688V143.719H135.479V146.688H137.479ZM96.1626 147.688H136.479V145.688H96.1626V147.688ZM95.1626 143.719V146.688H97.1626V143.719H95.1626ZM96.1515 144.719H96.1626V142.719H96.1515V144.719ZM93.1916 133.884C93.6859 137.03 94.3505 140.784 95.1841 143.972L97.119 143.466C96.3114 140.377 95.6591 136.703 95.1674 133.573L93.1916 133.884ZM93.0654 106.055C91.6862 115.332 91.7306 124.609 93.1917 133.884L95.1673 133.573C93.7377 124.497 93.6944 115.424 95.0437 106.35L93.0654 106.055ZM95.3856 94.9876C94.3863 98.6753 93.6112 102.365 93.0653 106.056L95.0438 106.349C95.5778 102.738 96.3365 99.1252 97.316 95.5107L95.3856 94.9876ZM96.142 94.0811C96.04 94.2024 95.9726 94.2816 95.9143 94.3402C95.8875 94.3671 95.8759 94.376 95.8775 94.3748C95.8791 94.3735 95.8875 94.3672 95.9023 94.3583C95.917 94.3495 95.9419 94.3358 95.9762 94.322L96.7253 96.1764C97.0085 96.062 97.2178 95.8657 97.3322 95.7506C97.4608 95.6214 97.5842 95.4736 97.6728 95.3683L96.142 94.0811ZM96.1412 94.0821L96.1412 94.0821L97.6736 95.3673L97.6736 95.3673L96.1412 94.0821ZM96.2959 93.9006C96.2416 93.9627 96.1882 94.0262 96.1421 94.0811L97.6728 95.3683C97.7212 95.3107 97.7623 95.2619 97.802 95.2165L96.2959 93.9006ZM96.0489 90.8655V94.5585H98.0489V90.8655H96.0489ZM135.15 89.8655H97.0489V91.8655H135.15V89.8655Z" fill="#393762" mask="url(#path-20-inside-5)"/>
    <path d="M163.24 103.224H177.07V100.469H163.24V103.224Z" fill="#393762"/>
    <path opacity="0.9" d="M178.27 94.0939C178.27 98.574 174.637 102.205 170.156 102.205C165.676 102.205 162.045 98.574 162.045 94.0939C162.045 89.6104 165.676 85.9796 170.156 85.9796C174.637 85.9796 178.27 89.6104 178.27 94.0939Z" fill="#393762"/>
    <path d="M170.152 85.9796C169.743 85.9796 169.341 86.0118 168.947 86.0708C172.243 87.06 174.521 90.1654 174.678 93.7262C174.864 97.8318 171.249 101.353 167.299 101.688C168.186 102.022 169.148 102.205 170.152 102.205C174.633 102.205 178.267 98.574 178.267 94.0939C178.267 89.6104 174.633 85.9796 170.152 85.9796Z" fill="#393762"/>
    <path opacity="0.5" d="M167.503 97.0491C167.286 97.0491 167.066 97.0333 166.847 96.9956C164.684 96.6416 163.21 94.6324 163.559 92.5128C163.618 92.1588 163.722 91.824 163.867 91.5133C164.012 91.2026 164.194 90.9158 164.406 90.6586C164.58 90.4761 164.759 90.2779 164.955 90.0879C165.421 89.6722 165.912 89.2729 166.713 89.2729C166.769 89.2729 166.828 89.2757 166.887 89.2812C169.754 89.4931 170.185 91.5263 170.815 92.794C170.965 93.1425 171.059 93.4958 171.069 93.847C171.196 94.6832 170.761 95.4659 170.049 96.1223C169.845 96.2986 169.617 96.4571 169.371 96.5854C168.808 96.8831 168.171 97.0491 167.503 97.0491Z" fill="white"/>
    <path d="M167.299 101.688L168.757 103.223H177.068V100.469L173.13 100.45C173.13 100.45 168.781 102.012 167.299 101.688Z" fill="#393762"/>
    <rect opacity="0.6" x="158.729" y="102.779" width="24.9618" height="40.8466" rx="9" fill="#E48868"/>
    <path d="M162.029 128.923H178.589V114.276H162.029V128.923Z" fill="white"/>
    <path d="M163.167 127.553H177.454V115.645H163.167V127.553ZM177.87 127.969H162.752V115.23H177.87V127.969Z" fill="#393762"/>
    <rect x="156.871" y="103.458" width="26.7818" height="42.7305" rx="8.5" stroke="#393762"/>
    <path d="M131.265 69.3077C128.088 79.434 124.688 91.6007 124.688 97.395V142.859C124.688 144.852 126.518 146.462 128.775 146.462H151.803C154.059 146.462 155.89 144.852 155.89 142.859V97.395C155.89 91.6221 152.484 79.4325 149.31 69.3077H131.265Z" fill="#393762"/>
    <path d="M146.22 54.3093H134.01V50.3229C134.01 49.8415 134.4 49.4516 134.881 49.4516H145.349C145.831 49.4516 146.22 49.8415 146.22 50.3229V54.3093Z" fill="#393762"/>
    <path d="M146.567 54.3096H133.586V53.2055H146.567V54.3096Z" fill="#4F3C75"/>
    <path d="M131.697 106.338H150.456V102.977H131.697V106.338Z" fill="#393762"/>
    <path d="M133.517 89.7785C133.517 90.2832 133.109 90.6924 132.607 90.6924C132.105 90.6924 131.697 90.2832 131.697 89.7785C131.697 89.2738 132.105 88.8646 132.607 88.8646C133.109 88.8646 133.517 89.2738 133.517 89.7785Z" fill="white"/>
    <path d="M135.681 82.0666C135.681 82.4188 135.397 82.7041 135.047 82.7041C134.696 82.7041 134.412 82.4188 134.412 82.0666C134.412 81.7147 134.696 81.4291 135.047 81.4291C135.397 81.4291 135.681 81.7147 135.681 82.0666Z" fill="white"/>
    <path d="M137.594 94.1017C137.594 94.633 137.166 95.0637 136.637 95.0637C136.108 95.0637 135.68 94.633 135.68 94.1017C135.68 93.5708 136.108 93.1401 136.637 93.1401C137.166 93.1401 137.594 93.5708 137.594 94.1017Z" fill="#A7FC8B"/>
    <path d="M132.377 138.186C132.377 138.665 131.991 139.053 131.514 139.053C131.037 139.053 130.65 138.665 130.65 138.186C130.65 137.707 131.037 137.319 131.514 137.319C131.991 137.319 132.377 137.707 132.377 138.186Z" fill="white"/>
    <path d="M136.424 141.289C136.424 141.71 136.084 142.052 135.665 142.052C135.246 142.052 134.906 141.71 134.906 141.289C134.906 140.868 135.246 140.527 135.665 140.527C136.084 140.527 136.424 140.868 136.424 141.289Z" fill="white"/>
    <path d="M132.607 90.6924C132.519 90.6924 132.434 90.6798 132.354 90.6565C132.484 90.0427 132.621 89.4484 132.763 88.8783C133.191 88.953 133.516 89.3274 133.516 89.7785C133.516 90.2832 133.109 90.6924 132.607 90.6924Z" fill="#BBFDA1"/>
    <path d="M135.047 82.7041C135.034 82.7041 135.021 82.7037 135.008 82.703C135.201 82.3559 135.399 82.0388 135.601 81.7547C135.653 81.8468 135.682 81.9534 135.682 82.0666C135.682 82.4188 135.398 82.7041 135.047 82.7041Z" fill="#BBFDA1"/>
    <path d="M136.637 95.0637C136.108 95.0637 135.68 94.633 135.68 94.1017C135.68 93.5708 136.108 93.1401 136.637 93.1401C137.166 93.1401 137.594 93.5708 137.594 94.1017C137.594 94.633 137.166 95.0637 136.637 95.0637Z" fill="white"/>
    <path d="M143.958 55.9829H136.415C135.538 55.9829 134.826 55.271 134.826 54.3937V54.2864H145.548V54.3937C145.548 55.271 144.836 55.9829 143.958 55.9829Z" fill="#393762"/>
    <path d="M155.557 142.797V96.5539C155.557 94.4034 155.083 91.3384 154.312 87.7883C153.543 84.2443 152.484 80.2382 151.325 76.2145C149.009 68.1676 146.299 60.0646 144.727 55.4736C144.608 55.1246 144.28 54.8909 143.909 54.8909H136.103C135.732 54.8909 135.404 55.1243 135.285 55.4732C133.699 60.1053 130.989 68.2025 128.676 76.2364C127.519 80.2535 126.463 84.2512 125.696 87.7899C124.927 91.3345 124.454 94.3975 124.454 96.5539V142.797C124.454 144.602 126.128 146.129 128.282 146.129H151.729C153.884 146.129 155.557 144.602 155.557 142.797Z" stroke="#393762" stroke-width="5"/>
    <path d="M104.719 146.64L104.714 137.012L132.69 137.064L132.695 146.692L104.719 146.64Z" fill="#E48868"/>
    <path d="M134.842 136.94L132.748 136.94L132.735 146.522L134.831 146.522L137.276 147.572L137.817 146.949L137.458 146.637L137.819 146.223L137.459 145.911L137.819 145.497L137.461 145.185L137.82 144.771L137.461 144.459L137.82 144.044L137.462 143.733L137.822 143.318L137.462 143.006L137.822 142.591L137.464 142.28L137.824 141.865L137.464 141.553L137.824 141.138L137.466 140.827L137.825 140.413L137.466 140.1L137.825 139.686L137.467 139.375L137.827 138.96L137.469 138.649L137.829 138.234L137.469 137.922L137.829 137.507L137.471 137.196L137.83 136.781L137.471 136.469L137.83 136.054L137.208 135.514L134.842 136.94Z" fill="#E48868"/>
    <path d="M100.25 147.605L102.795 146.567L104.786 146.585L104.714 136.916L102.723 136.899L100.251 135.489L100.204 135.437L100.186 135.452L100.16 135.437L100.16 135.473L99.5472 135.977L99.9313 136.398L99.5524 136.709L99.9367 137.131L99.5578 137.442L99.9423 137.864L99.5634 138.175L99.9476 138.597L99.5686 138.908L99.9531 139.33L99.5743 139.641L99.9586 140.063L99.5795 140.374L99.9641 140.796L99.5852 141.107L99.9695 141.529L99.5906 141.84L99.9748 142.262L99.596 142.573L99.9803 142.995L99.6015 143.306L99.9857 143.728L99.6069 144.039L99.9911 144.461L99.6125 144.772L99.9967 145.193L99.6179 145.505L100.002 145.926L99.6233 146.237L100.008 146.659L99.6288 146.97L100.206 147.604L100.25 147.568L100.25 147.605Z" fill="#E48868"/>
    <path opacity="0.2" d="M107.843 144.41L107.828 138.871L129.502 138.957L129.517 144.496L107.843 144.41Z" fill="white"/>
    <path d="M132.624 137.018L129.521 139.024L129.571 144.601L132.709 146.673L132.624 137.018Z" fill="#E9A086"/>
    <path d="M104.813 136.87L107.997 138.921L107.96 144.575L104.749 146.662L104.813 136.87Z" fill="#D07454"/>
    <path d="M108.909 139.669L108.908 143.813L128.636 143.836L128.638 139.693L108.909 139.669ZM108.638 144.083L108.638 139.399L128.908 139.424L128.907 144.108L108.638 144.083Z" fill="#E7C382"/>
    <path d="M110.064 146.26C109.862 146.119 109.698 145.908 109.58 145.626C109.697 145.897 109.861 146.105 110.064 146.247C110.26 146.385 110.492 146.461 110.755 146.472C110.753 146.474 110.752 146.476 110.751 146.478C110.492 146.469 110.26 146.397 110.064 146.26Z" fill="#AB9B82"/>
    <path d="M101.455 139.053C101.374 138.997 101.368 138.864 101.437 138.746C101.45 138.857 101.472 138.967 101.502 139.074C101.485 139.07 101.469 139.063 101.455 139.053Z" fill="#584545"/>
    <path d="M102.781 140.568C102.595 140.438 102.424 140.277 102.271 140.084L102.272 140.083C102.422 140.269 102.592 140.429 102.777 140.559C103.065 140.76 103.39 140.891 103.733 140.94C103.394 140.896 103.071 140.771 102.781 140.568Z" fill="#C3AF9B"/>
    <path d="M102.206 140.169C102.182 140.143 102.159 140.118 102.135 140.091C102.159 140.118 102.183 140.143 102.207 140.169L102.206 140.169ZM101.975 136.294C101.979 136.291 101.982 136.288 101.986 136.285C102.077 136.212 102.174 136.15 102.275 136.098C102.174 136.15 102.077 136.212 101.985 136.285C101.982 136.288 101.978 136.291 101.975 136.294ZM102.277 136.098C102.278 136.097 102.279 136.097 102.28 136.096C102.279 136.097 102.278 136.097 102.277 136.098Z" fill="#C3764A"/>
    <path d="M105.098 133.943C105.561 133.597 105.972 133.154 106.258 132.693C105.982 133.145 105.58 133.586 105.098 133.943Z" fill="#C3AF9B"/>
    <path d="M104.626 146.242L104.665 146.23L104.707 146.23L132.806 146.282L132.838 146.282L132.868 146.29L137.605 147.439L138.133 135.773L132.868 137.136L132.835 137.145L132.801 137.145L104.701 137.092L104.65 137.092L104.603 137.073L100.037 135.256L100.037 147.691L104.626 146.242Z" stroke="#393762" stroke-width="4"/>
    <defs>
        <linearGradient id="paint0_linear" x1="171.662" y1="94.3791" x2="177.626" y2="134.755" gradientUnits="userSpaceOnUse">
            <stop stop-color="#D2B3AF"/>
            <stop offset="0.352755" stop-color="#CBACA7"/>
            <stop offset="1" stop-color="#C09C97"/>
        </linearGradient>
        <linearGradient id="paint1_linear" x1="171.656" y1="94.3791" x2="177.621" y2="134.755" gradientUnits="userSpaceOnUse">
            <stop stop-color="#FCE4DC"/>
            <stop offset="0.352755" stop-color="#F5DCD2"/>
            <stop offset="1" stop-color="#EACDC3"/>
        </linearGradient>
    </defs>
</svg>
