<svg width="247" height="195" viewBox="0 0 247 192" fill="none" xmlns="http://www.w3.org/2000/svg">
    <path d="M232.744 112.046C232.744 136.235 180.686 173.144 158.681 177.619C91.2612 191.33 74.2748 197.499 51.8319 185.913C20.2916 169.63 -7.28327 156.308 1.73298 132.566C9.52516 112.046 47.9338 119.588 47.9338 97.5565C47.9338 54.2119 12.0636 69.4656 16.7609 47.5435C22 23.0924 108.078 -4.09534 108.078 42.0279C108.078 70.1856 181.633 25.446 207.695 23.0927C275.392 16.98 232.744 90.7922 232.744 112.046Z" fill="white"/>
    <path d="M80.0977 40.8074H182.758L195.591 156.3L187.891 164L80.0977 40.8074Z" fill="#E48868"/>
    <path d="M113.937 45.9404C107.953 28.8517 115.242 4.87622 136.559 4.87622C161.597 4.87623 153.209 32.8512 149.843 44.8496" stroke="#393762"/>
    <path d="M98.0286 114.566L75.0067 34.2582L99.8855 26.4994L126.288 105.753L98.0286 114.566Z" stroke="#E7C382"/>
    <path d="M111.729 106.811L140.482 30.1325L180.548 43.4578L157.161 121.921L111.729 106.811Z" stroke="#E7C382"/>
    <path d="M147.143 112.117L93.774 47.8045L123.92 20.9333L181.331 81.6419L147.143 112.117Z" stroke="#E7C382"/>
    <path d="M74.9652 40.8074H181.475L187.892 164H67.2656L74.9652 40.8074Z" fill="#F2B9A6"/>
    <path d="M67.8834 163.5L75.4812 40.5H180.494L186.825 163.5H67.8834Z" stroke="#393762"/>
    <path d="M195.524 16.169C199.989 16.169 203.608 12.5495 203.608 8.08451C203.608 3.61956 199.989 0 195.524 0C191.059 0 187.439 3.61956 187.439 8.08451C187.439 12.5495 191.059 16.169 195.524 16.169Z" fill="#393762"/>
    <path d="M245.841 137.437C245.841 142.901 241.412 147.331 235.947 147.331C230.483 147.331 226.053 142.901 226.053 137.437C226.053 131.972 230.483 127.542 235.947 127.542C241.412 127.542 245.841 131.972 245.841 137.437Z" stroke="#393762"/>
    <path d="M90.7228 63.5562H161.026L165.261 143.176H85.6406L90.7228 63.5562Z" fill="white"/>
    <path d="M89.8474 139.002L94.3966 67.731H157.267L161.058 139.002H89.8474Z" stroke="#393762"/>
    <path d="M108.804 45.9405C102.82 28.8518 104.317 2.30981 125.634 2.30981C150.672 2.30982 148.076 32.8513 144.71 44.8497" stroke="#393762"/>
    <circle cx="119.852" cy="79.5" r="4" stroke="#393762"/>
    <circle cx="130.852" cy="94.5" r="4" stroke="#393762"/>
    <rect x="133.953" y="76.4717" width="1" height="30.3236" transform="rotate(44.2337 133.953 76.4717)" fill="#393762"/>
    <rect x="100.352" y="116" width="1" height="9" fill="#393762"/>
    <rect x="96.3516" y="121" width="1" height="9" transform="rotate(-90 96.3516 121)" fill="#393762"/>
    <path d="M111.542 115.047L114.796 123.168L118.05 115.047H119.752V125H118.44V121.124L118.563 116.94L115.295 125H114.29L111.03 116.961L111.159 121.124V125H109.847V115.047H111.542ZM124.598 125H123.285V115.047H124.598V125ZM129.443 123.927H134.16V125H128.124V115.047H129.443V123.927ZM142.403 120.399H138.09V123.927H143.1V125H136.777V115.047H143.032V116.127H138.09V119.326H142.403V120.399ZM148.787 120.563C147.661 120.24 146.841 119.843 146.326 119.374C145.816 118.9 145.56 118.317 145.56 117.624C145.56 116.84 145.872 116.193 146.497 115.683C147.126 115.168 147.941 114.91 148.944 114.91C149.628 114.91 150.236 115.042 150.769 115.307C151.307 115.571 151.722 115.936 152.013 116.4C152.31 116.865 152.458 117.373 152.458 117.925H151.138C151.138 117.323 150.947 116.852 150.564 116.51C150.181 116.163 149.641 115.99 148.944 115.99C148.297 115.99 147.791 116.134 147.427 116.421C147.066 116.703 146.886 117.098 146.886 117.604C146.886 118.009 147.057 118.353 147.399 118.636C147.746 118.914 148.331 119.169 149.156 119.401C149.985 119.634 150.633 119.891 151.097 120.174C151.567 120.452 151.913 120.778 152.136 121.151C152.364 121.525 152.478 121.965 152.478 122.471C152.478 123.277 152.164 123.924 151.535 124.412C150.906 124.895 150.065 125.137 149.012 125.137C148.329 125.137 147.691 125.007 147.098 124.747C146.506 124.483 146.048 124.123 145.724 123.667C145.405 123.211 145.246 122.694 145.246 122.115H146.565C146.565 122.717 146.786 123.193 147.228 123.544C147.675 123.89 148.27 124.063 149.012 124.063C149.705 124.063 150.236 123.922 150.605 123.64C150.974 123.357 151.159 122.972 151.159 122.484C151.159 121.997 150.988 121.621 150.646 121.356C150.304 121.088 149.685 120.823 148.787 120.563Z" fill="#393762"/>
    <mask id="path-20-inside-1" fill="white">
        <path d="M48.5057 58.2031L38.982 68.8335L28.3516 59.3098L37.8753 48.6793L48.5057 58.2031ZM38.8969 67.2832L46.9554 58.2882L37.9604 50.2297L29.9019 59.2247L38.8969 67.2832Z"/>
    </mask>
    <path d="M48.5057 58.2031L49.9954 59.5376L51.3299 58.048L49.8403 56.7134L48.5057 58.2031ZM38.982 68.8335L37.6475 70.3232L39.1371 71.6577L40.4717 70.1681L38.982 68.8335ZM28.3516 59.3098L26.8619 57.9753L25.5274 59.4649L27.017 60.7994L28.3516 59.3098ZM37.8753 48.6793L39.2098 47.1897L37.7202 45.8552L36.3856 47.3448L37.8753 48.6793ZM38.8969 67.2832L37.5624 68.7728L39.052 70.1074L40.3865 68.6178L38.8969 67.2832ZM46.9554 58.2882L48.4451 59.6227L49.7796 58.1331L48.29 56.7986L46.9554 58.2882ZM37.9604 50.2297L39.295 48.74L37.8053 47.4055L36.4708 48.8951L37.9604 50.2297ZM29.9019 59.2247L28.4123 57.8901L27.0777 59.3798L28.5673 60.7143L29.9019 59.2247ZM47.0161 56.8685L37.4924 67.499L40.4717 70.1681L49.9954 59.5376L47.0161 56.8685ZM40.3166 67.3439L29.6861 57.8202L27.017 60.7994L37.6475 70.3232L40.3166 67.3439ZM29.8412 60.6444L39.3649 50.0139L36.3856 47.3448L26.8619 57.9753L29.8412 60.6444ZM36.5407 50.169L47.1712 59.6927L49.8403 56.7134L39.2098 47.1897L36.5407 50.169ZM40.3865 68.6178L48.4451 59.6227L45.4658 56.9537L37.4073 65.9487L40.3865 68.6178ZM48.29 56.7986L39.295 48.74L36.6259 51.7193L45.6209 59.7778L48.29 56.7986ZM36.4708 48.8951L28.4123 57.8901L31.3915 60.5592L39.45 51.5642L36.4708 48.8951ZM28.5673 60.7143L37.5624 68.7728L40.2314 65.7936L31.2364 57.7351L28.5673 60.7143Z" fill="#393762" mask="url(#path-20-inside-1)"/>
</svg>
