<svg width="192" height="240" viewBox="0 0 192 240" fill="none" xmlns="http://www.w3.org/2000/svg">
    <path d="M123.696 52.602H109.5V30.5H117.192V27.5H109.5H82.5H74.81V30.5H82.5V52.602H68.302C63.174 52.602 59.002 56.774 59.002 61.902V138.174C59.002 142.824 62.442 146.652 66.906 147.332V153.286H73.318V155.88C73.318 158.428 75.39 160.5 77.938 160.5H80.376C82.924 160.5 84.996 158.428 84.996 155.88V153.286H107.004V155.88C107.004 158.428 109.076 160.5 111.624 160.5H114.062C116.61 160.5 118.682 158.428 118.682 155.88V153.286H125.094V147.332C129.556 146.652 132.998 142.824 132.998 138.174V61.902C132.996 56.774 128.824 52.602 123.696 52.602ZM85.5 30.5H106.5V52.602H85.5V30.5ZM73.656 150.286H69.906V147.474H77.004C75.476 147.788 74.226 148.866 73.656 150.286ZM81.996 153.286V155.88C81.996 156.774 81.27 157.5 80.376 157.5H77.938C77.044 157.5 76.318 156.774 76.318 155.88V153.286V152C76.318 151.106 77.044 150.38 77.938 150.38H80.376C81.27 150.38 81.996 151.106 81.996 152V153.286ZM107.342 150.286H84.658C84.088 148.866 82.838 147.788 81.308 147.474H110.69C109.162 147.788 107.912 148.866 107.342 150.286ZM115.682 153.286V155.88C115.682 156.774 114.956 157.5 114.062 157.5H111.624C110.73 157.5 110.004 156.774 110.004 155.88V153.286V152C110.004 151.106 110.73 150.38 111.624 150.38H114.062C114.956 150.38 115.682 151.106 115.682 152V153.286ZM122.092 150.286H118.342C117.772 148.866 116.522 147.788 114.992 147.474H122.09V150.286H122.092ZM129.996 138.174C129.996 141.648 127.17 144.474 123.696 144.474H68.304C64.83 144.474 62.004 141.648 62.004 138.174V61.902C62.004 58.428 64.83 55.602 68.304 55.602H82.502H109.502H123.698C127.172 55.602 129.998 58.428 129.998 61.902V138.174H129.996Z" fill="#E5BB71"/>
    <path d="M71.0391 82.1599H80.4591V88.8499H83.4591V82.1599H120.959V79.1599H71.0391V82.1599Z" fill="#E5BB71"/>
    <path d="M56.4547 172.5C53.9827 172.5 51.9707 174.512 51.9707 176.984C51.9707 179.456 53.9827 181.468 56.4547 181.468C58.9267 181.468 60.9387 179.456 60.9387 176.984C60.9387 174.512 58.9267 172.5 56.4547 172.5ZM56.4547 180.468C54.5347 180.468 52.9707 178.904 52.9707 176.984C52.9707 175.064 54.5347 173.5 56.4547 173.5C58.3747 173.5 59.9387 175.064 59.9387 176.984C59.9387 178.904 58.3747 180.468 56.4547 180.468Z" fill="#E5BB71"/>
    <path d="M17.0234 55.626L15.0414 59.64L10.6094 60.284L13.8174 63.41L13.0594 67.826L17.0234 65.742L20.9874 67.826L20.2314 63.412L23.4394 60.286L19.0054 59.64L17.0234 55.626ZM19.1554 63.062L19.6574 65.998L17.0214 64.614L14.3854 65.998L14.8874 63.062L12.7554 60.982L15.7034 60.554L17.0214 57.884L18.3394 60.554L21.2874 60.982L19.1554 63.062Z" fill="#E5BB71"/>
    <path d="M57.9503 16.4099L56.5823 13.6379L55.2143 16.4099L52.1543 16.8559L54.3683 19.0139L53.8463 22.0599L56.5823 20.6219L59.3183 22.0599L58.7963 19.0139L61.0103 16.8559L57.9503 16.4099ZM57.9903 20.2319L56.5823 19.4919L55.1743 20.2319L55.4423 18.6639L54.3023 17.5519L55.8783 17.3239L56.5823 15.8979L57.2863 17.3239L58.8623 17.5519L57.7223 18.6639L57.9903 20.2319Z" fill="#E5BB71"/>
    <path d="M174.17 139.902L176.906 141.34L176.384 138.294L178.598 136.136L175.538 135.69L174.17 132.918L172.802 135.69L169.742 136.136L171.956 138.294L171.434 141.34L174.17 139.902ZM171.892 136.832L173.468 136.604L174.172 135.178L174.876 136.604L176.452 136.832L175.312 137.944L175.58 139.512L174.172 138.772L172.764 139.512L173.032 137.944L171.892 136.832Z" fill="#E5BB71"/>
    <path d="M174.173 28.272L172.369 33.826H166.531L171.253 37.26L169.449 42.812L174.173 39.38L178.897 42.812L177.093 37.26L181.815 33.826H175.977L174.173 28.272ZM175.917 36.876L176.995 40.192L174.173 38.142L171.351 40.192L172.429 36.876L169.607 34.824H173.097L174.175 31.506L175.253 34.824H178.743L175.917 36.876Z" fill="#E5BB71"/>
    <path d="M158.259 10.5339C155.787 10.5339 153.775 12.5459 153.775 15.0179C153.775 17.4899 155.787 19.5019 158.259 19.5019C160.731 19.5019 162.743 17.4899 162.743 15.0179C162.743 12.5459 160.733 10.5339 158.259 10.5339ZM158.259 18.5019C156.339 18.5019 154.775 16.9379 154.775 15.0179C154.775 13.0979 156.339 11.5339 158.259 11.5339C160.179 11.5339 161.743 13.0979 161.743 15.0179C161.743 16.9379 160.181 18.5019 158.259 18.5019Z" fill="#E5BB71"/>
    <path d="M177.246 94.4021C175.276 94.4021 173.674 96.0041 173.674 97.9741C173.674 99.9441 175.276 101.546 177.246 101.546C179.216 101.546 180.818 99.9441 180.818 97.9741C180.818 96.0041 179.214 94.4021 177.246 94.4021ZM177.246 100.546C175.828 100.546 174.674 99.3921 174.674 97.9741C174.674 96.5561 175.828 95.4021 177.246 95.4021C178.664 95.4021 179.818 96.5561 179.818 97.9741C179.818 99.3921 178.664 100.546 177.246 100.546Z" fill="#E5BB71"/>
    <path d="M29.9173 29.5879C27.3133 29.5879 25.1953 31.7059 25.1953 34.3099C25.1953 36.9139 27.3133 39.0319 29.9173 39.0319C32.5213 39.0319 34.6393 36.9139 34.6393 34.3099C34.6393 31.7059 32.5193 29.5879 29.9173 29.5879ZM29.9173 38.0319C27.8653 38.0319 26.1953 36.3619 26.1953 34.3099C26.1953 32.2579 27.8653 30.5879 29.9173 30.5879C31.9693 30.5879 33.6393 32.2579 33.6393 34.3099C33.6393 36.3619 31.9673 38.0319 29.9173 38.0319Z" fill="#E5BB71"/>
    <path d="M43.9668 177.028C44.6188 177.194 45.2768 177.34 45.9428 177.474L46.1408 176.494C45.4908 176.364 44.8488 176.218 44.2128 176.06L43.9668 177.028Z" fill="#E5BB71"/>
    <path d="M14.291 137.704C14.291 137.05 14.307 136.394 14.339 135.734L13.341 135.686C13.307 136.36 13.291 137.034 13.291 137.704C13.291 138.36 13.307 139.014 13.339 139.664L14.337 139.616C14.305 138.98 14.291 138.344 14.291 137.704Z" fill="#E5BB71"/>
    <path d="M36.4785 174.346C37.6725 174.912 38.9105 175.426 40.1545 175.872L40.4925 174.93C39.2785 174.496 38.0725 173.994 36.9065 173.442L36.4785 174.346Z" fill="#E5BB71"/>
    <path d="M13.7266 143.62C13.9206 144.926 14.1826 146.238 14.5026 147.52L15.4726 147.276C15.1586 146.026 14.9026 144.746 14.7146 143.474L13.7266 143.62Z" fill="#E5BB71"/>
    <path d="M23.7871 164.896C24.6691 165.876 25.6151 166.824 26.5951 167.716L27.2691 166.976C26.3131 166.106 25.3911 165.182 24.5291 164.226L23.7871 164.896Z" fill="#E5BB71"/>
    <path d="M29.6641 170.248C30.7281 171.04 31.8401 171.786 32.9701 172.464L33.4861 171.606C32.3841 170.944 31.3001 170.216 30.2621 169.444L29.6641 170.248Z" fill="#E5BB71"/>
    <path d="M19.0566 158.508C19.7346 159.642 20.4786 160.756 21.2646 161.818L22.0686 161.224C21.3026 160.186 20.5766 159.1 19.9146 157.994L19.0566 158.508Z" fill="#E5BB71"/>
    <path d="M15.6582 151.326C16.1022 152.564 16.6142 153.8 17.1822 155L18.0862 154.572C17.5322 153.402 17.0322 152.196 16.6002 150.988L15.6582 151.326Z" fill="#E5BB71"/>
    <path d="M15.0643 129.898L14.0843 129.702C13.9523 130.368 13.8343 131.032 13.7363 131.698L14.7243 131.844C14.8223 131.198 14.9363 130.548 15.0643 129.898Z" fill="#E5BB71"/>
    <path d="M178.365 153.966L179.361 154.058C179.423 153.386 179.461 152.708 179.475 152.024L178.475 152.004C178.459 152.664 178.423 153.318 178.365 153.966Z" fill="#E5BB71"/>
    <path d="M157.047 177.972L157.255 178.95C158.701 178.642 160.133 178.214 161.517 177.678L161.155 176.746C159.825 177.262 158.441 177.674 157.047 177.972Z" fill="#E5BB71"/>
    <path d="M171.633 169.462L172.381 170.126C173.367 169.016 174.269 167.822 175.065 166.58L174.223 166.04C173.457 167.24 172.585 168.392 171.633 169.462Z" fill="#E5BB71"/>
    <path d="M165.021 174.884L165.525 175.748C166.803 175.002 168.031 174.148 169.177 173.208L168.543 172.434C167.437 173.34 166.251 174.164 165.021 174.884Z" fill="#E5BB71"/>
    <path d="M176.242 162.256L177.16 162.654C177.75 161.296 178.236 159.88 178.602 158.446L177.632 158.2C177.278 159.582 176.81 160.948 176.242 162.256Z" fill="#E5BB71"/>
    <path d="M150.817 178.562L150.797 179.562C150.989 179.566 151.181 179.568 151.373 179.568C151.863 179.568 152.349 179.556 152.833 179.53L152.783 178.532C152.131 178.564 151.479 178.576 150.817 178.562Z" fill="#E5BB71"/>
    <path d="M177.744 56.7539H176.744V60.7539H177.744V56.7539Z" fill="#E5BB71"/>
    <path d="M177.744 72.7539H176.744V76.7539H177.744V72.7539Z" fill="#E5BB71"/>
    <path d="M177.744 80.7539H176.744V84.7539H177.744V80.7539Z" fill="#E5BB71"/>
    <path d="M177.744 64.7539H176.744V68.7539H177.744V64.7539Z" fill="#E5BB71"/>
</svg>
