<svg width="32" height="32" viewBox="0 0 32 32" fill="#262A2C" xmlns="http://www.w3.org/2000/svg">
    <path d="M29 11.977C29 13.8112 28.3028 15.6813 27.1408 17.012L26.5764 17.6593L16.5166 27.2617L6.49004 17.6593L5.89243 17.012C4.69721 15.6813 4 13.955 4 12.0489C4 10.1429 4.66401 8.41658 5.89243 7.08591C7.12085 5.75524 8.71448 5.03596 10.4077 5.03596C12.1009 5.03596 13.6946 5.75524 14.923 7.04995L16.4834 8.74026L18.0438 7.04995C19.239 5.71928 20.8659 5 22.5923 5C24.3187 5 25.9123 5.71928 27.1408 7.04995C28.336 8.38062 29 10.1069 29 11.977Z" stroke="#262A2C" stroke-width="2"/>
</svg>
