<svg width="20" height="14" viewBox="0 0 30 22" fill="none" xmlns="http://www.w3.org/2000/svg">
    <path d="M21.7474 1.33564L21.083 0.588227L19.5882 1.91695L20.2526 2.66436L21.7474 1.33564ZM29 11L29.7474 11.6644C30.0842 11.2855 30.0842 10.7145 29.7474 10.3356L29 11ZM20.2526 19.3356L19.5882 20.083L21.083 21.4118L21.7474 20.6644L20.2526 19.3356ZM1 10H0V12H1V10ZM20.2526 2.66436L28.2526 11.6644L29.7474 10.3356L21.7474 1.33564L20.2526 2.66436ZM28.2526 10.3356L20.2526 19.3356L21.7474 20.6644L29.7474 11.6644L28.2526 10.3356ZM21 12H29V10H21V12ZM21 11C21 10 21 10 20.9999 10C20.9998 10 20.9996 10 20.9994 10C20.9993 10 20.999 10 20.9987 10C20.9985 10 20.9981 10 20.9978 10C20.9974 10 20.997 10 20.9965 10C20.9961 10 20.9956 10 20.995 10C20.9945 10 20.9939 10 20.9932 10C20.9926 10 20.9919 10 20.9911 10C20.9904 10 20.9896 10 20.9888 10C20.988 10 20.9871 10 20.9862 10C20.9853 10 20.9843 10 20.9833 10C20.9823 10 20.9812 10 20.9801 10C20.979 10 20.9779 10 20.9767 10C20.9755 10 20.9743 10 20.973 10C20.9717 10 20.9704 10 20.969 10C20.9677 10 20.9663 10 20.9648 10C20.9633 10 20.9618 10 20.9603 10C20.9587 10 20.9572 10 20.9555 10C20.9539 10 20.9522 10 20.9505 10C20.9488 10 20.947 10 20.9452 10C20.9434 10 20.9415 10 20.9396 10C20.9377 10 20.9358 10 20.9338 10C20.9318 10 20.9298 10 20.9277 10C20.9256 10 20.9235 10 20.9214 10C20.9192 10 20.917 10 20.9147 10C20.9125 10 20.9102 10 20.9079 10C20.9055 10 20.9032 10 20.9007 10C20.8983 10 20.8959 10 20.8933 10C20.8908 10 20.8883 10 20.8857 10C20.8831 10 20.8805 10 20.8778 10C20.8751 10 20.8724 10 20.8696 10C20.8669 10 20.864 10 20.8612 10C20.8583 10 20.8555 10 20.8525 10C20.8496 10 20.8466 10 20.8436 10C20.8406 10 20.8375 10 20.8344 10C20.8313 10 20.8282 10 20.825 10C20.8218 10 20.8186 10 20.8153 10C20.812 10 20.8087 10 20.8053 10C20.802 10 20.7986 10 20.7951 10C20.7917 10 20.7882 10 20.7847 10C20.7812 10 20.7776 10 20.774 10C20.7704 10 20.7668 10 20.7631 10C20.7594 10 20.7557 10 20.7519 10C20.7481 10 20.7443 10 20.7404 10C20.7366 10 20.7327 10 20.7288 10C20.7248 10 20.7209 10 20.7168 10C20.7128 10 20.7088 10 20.7047 10C20.7006 10 20.6964 10 20.6922 10C20.6881 10 20.6838 10 20.6796 10C20.6753 10 20.671 10 20.6667 10C20.6623 10 20.658 10 20.6535 10C20.6491 10 20.6447 10 20.6402 10C20.6357 10 20.6311 10 20.6265 10C20.6219 10 20.6173 10 20.6127 10C20.608 10 20.6033 10 20.5986 10C20.5938 10 20.589 10 20.5842 10C20.5794 10 20.5745 10 20.5696 10C20.5647 10 20.5598 10 20.5548 10C20.5498 10 20.5448 10 20.5398 10C20.5347 10 20.5296 10 20.5245 10C20.5193 10 20.5142 10 20.5089 10C20.5037 10 20.4985 10 20.4932 10C20.4879 10 20.4826 10 20.4772 10C20.4718 10 20.4664 10 20.461 10C20.4555 10 20.45 10 20.4445 10C20.439 10 20.4334 10 20.4278 10C20.4222 10 20.4166 10 20.4109 10C20.4052 10 20.3995 10 20.3938 10C20.388 10 20.3822 10 20.3764 10C20.3706 10 20.3647 10 20.3588 10C20.3529 10 20.347 10 20.341 10C20.335 10 20.329 10 20.3229 10C20.3169 10 20.3108 10 20.3046 10C20.2985 10 20.2923 10 20.2861 10C20.2799 10 20.2737 10 20.2674 10C20.2611 10 20.2548 10 20.2484 10C20.2421 10 20.2357 10 20.2293 10C20.2228 10 20.2164 10 20.2099 10C20.2034 10 20.1968 10 20.1903 10C20.1837 10 20.1771 10 20.1704 10C20.1638 10 20.1571 10 20.1504 10C20.1436 10 20.1369 10 20.1301 10C20.1233 10 20.1165 10 20.1096 10C20.1027 10 20.0958 10 20.0889 10C20.0819 10 20.075 10 20.0679 10C20.0609 10 20.0539 10 20.0468 10C20.0397 10 20.0326 10 20.0254 10C20.0183 10 20.0111 10 20.0039 10C19.9966 10 19.9894 10 19.9821 10C19.9748 10 19.9674 10 19.9601 10C19.9527 10 19.9453 10 19.9378 10C19.9304 10 19.9229 10 19.9154 10C19.9079 10 19.9004 10 19.8928 10C19.8852 10 19.8776 10 19.8699 10C19.8623 10 19.8546 10 19.8469 10C19.8391 10 19.8314 10 19.8236 10C19.8158 10 19.808 10 19.8001 10C19.7923 10 19.7844 10 19.7764 10C19.7685 10 19.7606 10 19.7526 10C19.7446 10 19.7365 10 19.7285 10C19.7204 10 19.7123 10 19.7042 10C19.696 10 19.6879 10 19.6797 10C19.6715 10 19.6632 10 19.655 10C19.6467 10 19.6384 10 19.63 10C19.6217 10 19.6133 10 19.6049 10C19.5965 10 19.5881 10 19.5796 10C19.5712 10 19.5627 10 19.5541 10C19.5456 10 19.537 10 19.5284 10C19.5198 10 19.5112 10 19.5025 10C19.4938 10 19.4851 10 19.4764 10C19.4676 10 19.4589 10 19.4501 10C19.4413 10 19.4324 10 19.4236 10C19.4147 10 19.4058 10 19.3969 10C19.3879 10 19.379 10 19.37 10C19.361 10 19.3519 10 19.3429 10C19.3338 10 19.3247 10 19.3156 10C19.3065 10 19.2973 10 19.2881 10C19.2789 10 19.2697 10 19.2605 10C19.2512 10 19.2419 10 19.2326 10C19.2233 10 19.2139 10 19.2045 10C19.1952 10 19.1857 10 19.1763 10C19.1669 10 19.1574 10 19.1479 10C19.1384 10 19.1288 10 19.1193 10C19.1097 10 19.1001 10 19.0904 10C19.0808 10 19.0711 10 19.0614 10C19.0518 10 19.042 10 19.0323 10C19.0225 10 19.0127 10 19.0029 10C18.9931 10 18.9832 10 18.9734 10C18.9635 10 18.9536 10 18.9436 10C18.9337 10 18.9237 10 18.9137 10C18.9037 10 18.8937 10 18.8836 10C18.8735 10 18.8634 10 18.8533 10C18.8432 10 18.833 10 18.8228 10C18.8127 10 18.8024 10 18.7922 10C18.782 10 18.7717 10 18.7614 10C18.7511 10 18.7407 10 18.7304 10C18.72 10 18.7096 10 18.6992 10C18.6888 10 18.6783 10 18.6678 10C18.6573 10 18.6468 10 18.6363 10C18.6257 10 18.6152 10 18.6046 10C18.594 10 18.5833 10 18.5727 10C18.562 10 18.5513 10 18.5406 10C18.5299 10 18.5192 10 18.5084 10C18.4976 10 18.4868 10 18.476 10C18.4651 10 18.4543 10 18.4434 10C18.4325 10 18.4216 10 18.4106 10C18.3997 10 18.3887 10 18.3777 10C18.3667 10 18.3557 10 18.3446 10C18.3336 10 18.3225 10 18.3114 10C18.3002 10 18.2891 10 18.2779 10C18.2668 10 18.2556 10 18.2443 10C18.2331 10 18.2218 10 18.2106 10C18.1993 10 18.188 10 18.1766 10C18.1653 10 18.1539 10 18.1425 10C18.1311 10 18.1197 10 18.1083 10C18.0968 10 18.0853 10 18.0738 10C18.0623 10 18.0508 10 18.0392 10C18.0277 10 18.0161 10 18.0045 10C17.9929 10 17.9812 10 17.9696 10C17.9579 10 17.9462 10 17.9345 10C17.9228 10 17.911 10 17.8992 10C17.8875 10 17.8757 10 17.8638 10C17.852 10 17.8402 10 17.8283 10C17.8164 10 17.8045 10 17.7926 10C17.7806 10 17.7687 10 17.7567 10C17.7447 10 17.7327 10 17.7207 10C17.7086 10 17.6966 10 17.6845 10C17.6724 10 17.6603 10 17.6481 10C17.636 10 17.6238 10 17.6116 10C17.5995 10 17.5872 10 17.575 10C17.5628 10 17.5505 10 17.5382 10C17.5259 10 17.5136 10 17.5012 10C17.4889 10 17.4765 10 17.4641 10C17.4517 10 17.4393 10 17.4269 10C17.4144 10 17.402 10 17.3895 10C17.377 10 17.3645 10 17.3519 10C17.3394 10 17.3268 10 17.3142 10C17.3016 10 17.289 10 17.2763 10C17.2637 10 17.251 10 17.2383 10C17.2257 10 17.2129 10 17.2002 10C17.1875 10 17.1747 10 17.1619 10C17.1491 10 17.1363 10 17.1235 10C17.1106 10 17.0978 10 17.0849 10C17.072 10 17.0591 10 17.0462 10C17.0332 10 17.0203 10 17.0073 10C16.9943 10 16.9813 10 16.9683 10C16.9553 10 16.9422 10 16.9291 10C16.9161 10 16.903 10 16.8898 10C16.8767 10 16.8636 10 16.8504 10C16.8372 10 16.824 10 16.8108 10C16.7976 10 16.7844 10 16.7711 10C16.7579 10 16.7446 10 16.7313 10C16.718 10 16.7046 10 16.6913 10C16.6779 10 16.6646 10 16.6512 10C16.6378 10 16.6244 10 16.6109 10C16.5975 10 16.584 10 16.5705 10C16.557 10 16.5435 10 16.53 10C16.5165 10 16.5029 10 16.4894 10C16.4758 10 16.4622 10 16.4486 10C16.4349 10 16.4213 10 16.4076 10C16.394 10 16.3803 10 16.3666 10C16.3529 10 16.3392 10 16.3254 10C16.3117 10 16.2979 10 16.2841 10C16.2703 10 16.2565 10 16.2427 10C16.2288 10 16.215 10 16.2011 10C16.1872 10 16.1733 10 16.1594 10C16.1455 10 16.1315 10 16.1176 10C16.1036 10 16.0896 10 16.0756 10C16.0616 10 16.0476 10 16.0336 10C16.0195 10 16.0055 10 15.9914 10C15.9773 10 15.9632 10 15.949 10C15.9349 10 15.9208 10 15.9066 10C15.8924 10 15.8783 10 15.864 10C15.8498 10 15.8356 10 15.8214 10C15.8071 10 15.7928 10 15.7786 10C15.7643 10 15.75 10 15.7356 10C15.7213 10 15.707 10 15.6926 10C15.6782 10 15.6638 10 15.6494 10C15.635 10 15.6206 10 15.6061 10C15.5917 10 15.5772 10 15.5627 10C15.5483 10 15.5338 10 15.5192 10C15.5047 10 15.4902 10 15.4756 10C15.461 10 15.4465 10 15.4319 10C15.4173 10 15.4026 10 15.388 10C15.3734 10 15.3587 10 15.344 10C15.3294 10 15.3147 10 15.3 10C15.2852 10 15.2705 10 15.2558 10C15.241 10 15.2262 10 15.2115 10C15.1967 10 15.1819 10 15.167 10C15.1522 10 15.1374 10 15.1225 10C15.1077 10 15.0928 10 15.0779 10C15.063 10 15.0481 10 15.0331 10C15.0182 10 15.0033 10 14.9883 10C14.9733 10 14.9583 10 14.9433 10C14.9283 10 14.9133 10 14.8983 10C14.8832 10 14.8682 10 14.8531 10C14.838 10 14.823 10 14.8079 10C14.7927 10 14.7776 10 14.7625 10C14.7473 10 14.7322 10 14.717 10C14.7018 10 14.6866 10 14.6714 10C14.6562 10 14.641 10 14.6257 10C14.6105 10 14.5952 10 14.58 10C14.5647 10 14.5494 10 14.5341 10C14.5188 10 14.5035 10 14.4881 10C14.4728 10 14.4574 10 14.442 10C14.4267 10 14.4113 10 14.3959 10C14.3805 10 14.365 10 14.3496 10C14.3342 10 14.3187 10 14.3032 10C14.2878 10 14.2723 10 14.2568 10C14.2413 10 14.2257 10 14.2102 10C14.1947 10 14.1791 10 14.1636 10C14.148 10 14.1324 10 14.1168 10C14.1012 10 14.0856 10 14.07 10C14.0544 10 14.0387 10 14.0231 10C14.0074 10 13.9917 10 13.976 10C13.9604 10 13.9446 10 13.9289 10C13.9132 10 13.8975 10 13.8817 10C13.866 10 13.8502 10 13.8344 10C13.8187 10 13.8029 10 13.7871 10C13.7713 10 13.7554 10 13.7396 10C13.7238 10 13.7079 10 13.6921 10C13.6762 10 13.6603 10 13.6444 10C13.6285 10 13.6126 10 13.5967 10C13.5808 10 13.5649 10 13.5489 10C13.533 10 13.517 10 13.501 10C13.4851 10 13.4691 10 13.4531 10C13.4371 10 13.421 10 13.405 10C13.389 10 13.3729 10 13.3569 10C13.3408 10 13.3248 10 13.3087 10C13.2926 10 13.2765 10 13.2604 10C13.2443 10 13.2281 10 13.212 10C13.1959 10 13.1797 10 13.1636 10C13.1474 10 13.1312 10 13.115 10C13.0988 10 13.0826 10 13.0664 10C13.0502 10 13.034 10 13.0177 10C13.0015 10 12.9853 10 12.969 10C12.9527 10 12.9365 10 12.9202 10C12.9039 10 12.8876 10 12.8713 10C12.8549 10 12.8386 10 12.8223 10C12.8059 10 12.7896 10 12.7732 10C12.7569 10 12.7405 10 12.7241 10C12.7077 10 12.6913 10 12.6749 10C12.6585 10 12.6421 10 12.6257 10C12.6092 10 12.5928 10 12.5763 10C12.5599 10 12.5434 10 12.5269 10C12.5105 10 12.494 10 12.4775 10C12.461 10 12.4445 10 12.4279 10C12.4114 10 12.3949 10 12.3783 10C12.3618 10 12.3452 10 12.3287 10C12.3121 10 12.2955 10 12.2789 10C12.2623 10 12.2457 10 12.2291 10C12.2125 10 12.1959 10 12.1793 10C12.1626 10 12.146 10 12.1294 10C12.1127 10 12.096 10 12.0794 10C12.0627 10 12.046 10 12.0293 10C12.0126 10 11.9959 10 11.9792 10C11.9625 10 11.9458 10 11.9291 10C11.9123 10 11.8956 10 11.8788 10C11.8621 10 11.8453 10 11.8285 10C11.8118 10 11.795 10 11.7782 10C11.7614 10 11.7446 10 11.7278 10C11.711 10 11.6942 10 11.6774 10C11.6605 10 11.6437 10 11.6269 10C11.61 10 11.5932 10 11.5763 10C11.5594 10 11.5426 10 11.5257 10C11.5088 10 11.4919 10 11.475 10C11.4581 10 11.4412 10 11.4243 10C11.4074 10 11.3904 10 11.3735 10C11.3566 10 11.3396 10 11.3227 10C11.3057 10 11.2888 10 11.2718 10C11.2548 10 11.2379 10 11.2209 10C11.2039 10 11.1869 10 11.1699 10C11.1529 10 11.1359 10 11.1189 10C11.1019 10 11.0849 10 11.0678 10C11.0508 10 11.0338 10 11.0167 10C10.9997 10 10.9826 10 10.9655 10C10.9485 10 10.9314 10 10.9143 10C10.8973 10 10.8802 10 10.8631 10C10.846 10 10.8289 10 10.8118 10C10.7947 10 10.7776 10 10.7605 10C10.7433 10 10.7262 10 10.7091 10C10.692 10 10.6748 10 10.6577 10C10.6405 10 10.6234 10 10.6062 10C10.5891 10 10.5719 10 10.5547 10C10.5375 10 10.5204 10 10.5032 10C10.486 10 10.4688 10 10.4516 10C10.4344 10 10.4172 10 10.4 10C10.3828 10 10.3656 10 10.3483 10C10.3311 10 10.3139 10 10.2967 10C10.2794 10 10.2622 10 10.2449 10C10.2277 10 10.2104 10 10.1932 10C10.1759 10 10.1587 10 10.1414 10C10.1241 10 10.1068 10 10.0896 10C10.0723 10 10.055 10 10.0377 10C10.0204 10 10.0031 10 9.98582 10C9.96852 10 9.95121 10 9.9339 10C9.91659 10 9.89927 10 9.88195 10C9.86463 10 9.8473 10 9.82997 10C9.81264 10 9.79531 10 9.77797 10C9.76063 10 9.74328 10 9.72593 10C9.70858 10 9.69123 10 9.67387 10C9.65651 10 9.63915 10 9.62178 10C9.60442 10 9.58705 10 9.56967 10C9.5523 10 9.53492 10 9.51753 10C9.50015 10 9.48276 10 9.46537 10C9.44798 10 9.43058 10 9.41318 10C9.39579 10 9.37838 10 9.36098 10C9.34357 10 9.32616 10 9.30874 10C9.29133 10 9.27391 10 9.25649 10C9.23907 10 9.22165 10 9.20422 10C9.18679 10 9.16936 10 9.15193 10C9.13449 10 9.11706 10 9.09962 10C9.08218 10 9.06473 10 9.04729 10C9.02984 10 9.01239 10 8.99494 10C8.97749 10 8.96003 10 8.94258 10C8.92512 10 8.90766 10 8.8902 10C8.87273 10 8.85527 10 8.8378 10C8.82033 10 8.80286 10 8.78539 10C8.76792 10 8.75045 10 8.73297 10C8.71549 10 8.69801 10 8.68053 10C8.66305 10 8.64557 10 8.62808 10C8.6106 10 8.59311 10 8.57562 10C8.55813 10 8.54064 10 8.52315 10C8.50566 10 8.48816 10 8.47067 10C8.45317 10 8.43568 10 8.41818 10C8.40068 10 8.38318 10 8.36568 10C8.34818 10 8.33067 10 8.31317 10C8.29567 10 8.27816 10 8.26066 10C8.24315 10 8.22564 10 8.20813 10C8.19063 10 8.17312 10 8.15561 10C8.1381 10 8.12059 10 8.10308 10C8.08556 10 8.06805 10 8.05054 10C8.03303 10 8.01551 10 7.998 10C7.98049 10 7.96297 10 7.94546 10C7.92794 10 7.91043 10 7.89291 10C7.8754 10 7.85788 10 7.84037 10C7.82285 10 7.80534 10 7.78782 10C7.77031 10 7.75279 10 7.73528 10C7.71776 10 7.70025 10 7.68273 10C7.66522 10 7.6477 10 7.63019 10C7.61267 10 7.59516 10 7.57765 10C7.56014 10 7.54262 10 7.52511 10C7.5076 10 7.49009 10 7.47258 10C7.45507 10 7.43756 10 7.42005 10C7.40254 10 7.38503 10 7.36753 10C7.35002 10 7.33251 10 7.31501 10C7.2975 10 7.28 10 7.2625 10C7.245 10 7.22749 10 7.21 10C7.1925 10 7.175 10 7.1575 10C7.14 10 7.12251 10 7.10502 10C7.08752 10 7.07003 10 7.05254 10C7.03505 10 7.01756 10 7.00008 10C6.98259 10 6.96511 10 6.94762 10C6.93014 10 6.91266 10 6.89518 10C6.8777 10 6.86023 10 6.84275 10C6.82528 10 6.80781 10 6.79034 10C6.77287 10 6.7554 10 6.73794 10C6.72047 10 6.70301 10 6.68555 10C6.66809 10 6.65064 10 6.63318 10C6.61573 10 6.59828 10 6.58083 10C6.56338 10 6.54594 10 6.52849 10C6.51105 10 6.49361 10 6.47618 10C6.45874 10 6.44131 10 6.42388 10C6.40645 10 6.38902 10 6.3716 10C6.35417 10 6.33675 10 6.31934 10C6.30192 10 6.28451 10 6.2671 10C6.24969 10 6.23228 10 6.21488 10C6.19748 10 6.18008 10 6.16269 10C6.14529 10 6.1279 10 6.11052 10C6.09313 10 6.07575 10 6.05837 10C6.04099 10 6.02362 10 6.00625 10C5.98888 10 5.97151 10 5.95415 10C5.93679 10 5.91943 10 5.90208 10C5.88473 10 5.86738 10 5.85004 10C5.83269 10 5.81535 10 5.79802 10C5.78069 10 5.76336 10 5.74603 10C5.72871 10 5.71139 10 5.69407 10C5.67676 10 5.65945 10 5.64214 10C5.62484 10 5.60754 10 5.59025 10C5.57295 10 5.55566 10 5.53838 10C5.5211 10 5.50382 10 5.48654 10C5.46927 10 5.452 10 5.43474 10C5.41748 10 5.40022 10 5.38297 10C5.36572 10 5.34848 10 5.33124 10C5.314 10 5.29677 10 5.27954 10C5.26231 10 5.24509 10 5.22788 10C5.21066 10 5.19345 10 5.17625 10C5.15905 10 5.14185 10 5.12466 10C5.10747 10 5.09029 10 5.07311 10C5.05593 10 5.03876 10 5.0216 10C5.00443 10 4.98727 10 4.97012 10C4.95297 10 4.93583 10 4.91869 10C4.90155 10 4.88442 10 4.8673 10C4.85018 10 4.83306 10 4.81595 10C4.79884 10 4.78174 10 4.76464 10C4.74755 10 4.73046 10 4.71338 10C4.6963 10 4.67922 10 4.66216 10C4.64509 10 4.62803 10 4.61098 10C4.59393 10 4.57688 10 4.55985 10C4.54281 10 4.52578 10 4.50876 10C4.49174 10 4.47473 10 4.45773 10C4.44072 10 4.42373 10 4.40674 10C4.38975 10 4.37277 10 4.35579 10C4.33882 10 4.32186 10 4.3049 10C4.28795 10 4.271 10 4.25406 10C4.23712 10 4.22019 10 4.20327 10C4.18635 10 4.16943 10 4.15253 10C4.13562 10 4.11873 10 4.10184 10C4.08495 10 4.06807 10 4.0512 10C4.03433 10 4.01747 10 4.00062 10C3.98377 10 3.96693 10 3.95009 10C3.93326 10 3.91644 10 3.89962 10C3.88281 10 3.866 10 3.8492 10C3.83241 10 3.81562 10 3.79884 10C3.78207 10 3.7653 10 3.74854 10C3.73178 10 3.71503 10 3.69829 10C3.68156 10 3.66483 10 3.64811 10C3.63139 10 3.61468 10 3.59798 10C3.58128 10 3.56459 10 3.54791 10C3.53124 10 3.51457 10 3.49791 10C3.48125 10 3.4646 10 3.44796 10C3.43133 10 3.4147 10 3.39808 10C3.38147 10 3.36486 10 3.34826 10C3.33167 10 3.31508 10 3.29851 10C3.28194 10 3.26537 10 3.24882 10C3.23227 10 3.21573 10 3.1992 10C3.18267 10 3.16615 10 3.14964 10C3.13313 10 3.11663 10 3.10015 10C3.08366 10 3.06719 10 3.05072 10C3.03426 10 3.01781 10 3.00137 10C2.98493 10 2.9685 10 2.95208 10C2.93566 10 2.91926 10 2.90286 10C2.88647 10 2.87009 10 2.85372 10C2.83735 10 2.82099 10 2.80464 10C2.7883 10 2.77196 10 2.75564 10C2.73932 10 2.72301 10 2.70671 10C2.69042 10 2.67413 10 2.65786 10C2.64158 10 2.62532 10 2.60908 10C2.59283 10 2.57659 10 2.56037 10C2.54415 10 2.52794 10 2.51174 10C2.49554 10 2.47936 10 2.46318 10C2.44701 10 2.43085 10 2.41471 10C2.39856 10 2.38243 10 2.36631 10C2.35019 10 2.33408 10 2.31799 10C2.30189 10 2.28581 10 2.26975 10C2.25368 10 2.23763 10 2.22159 10C2.20555 10 2.18952 10 2.17351 10C2.15749 10 2.14149 10 2.12551 10C2.10952 10 2.09355 10 2.07759 10C2.06164 10 2.04569 10 2.02976 10C2.01383 10 1.99791 10 1.98201 10C1.96611 10 1.95022 10 1.93435 10C1.91848 10 1.90262 10 1.88677 10C1.87093 10 1.8551 10 1.83928 10C1.82346 10 1.80766 10 1.79187 10C1.77609 10 1.76031 10 1.74456 10C1.7288 10 1.71306 10 1.69733 10C1.6816 10 1.66589 10 1.65019 10C1.63449 10 1.61881 10 1.60314 10C1.58747 10 1.57182 10 1.55618 10C1.54054 10 1.52492 10 1.50931 10C1.4937 10 1.47811 10 1.46253 10C1.44696 10 1.4314 10 1.41585 10C1.4003 10 1.38477 10 1.36926 10C1.35375 10 1.33825 10 1.32277 10C1.30728 10 1.29182 10 1.27636 10C1.26091 10 1.24548 10 1.23006 10C1.21464 10 1.19924 10 1.18385 10C1.16847 10 1.1531 10 1.13774 10C1.12239 10 1.10705 10 1.09173 10C1.07641 10 1.0611 10 1.04581 10C1.03053 10 1.01525 10 1 10V12C1.01525 12 1.03053 12 1.04581 12C1.0611 12 1.07641 12 1.09173 12C1.10705 12 1.12239 12 1.13774 12C1.1531 12 1.16847 12 1.18385 12C1.19924 12 1.21464 12 1.23006 12C1.24548 12 1.26091 12 1.27636 12C1.29182 12 1.30728 12 1.32277 12C1.33825 12 1.35375 12 1.36926 12C1.38477 12 1.4003 12 1.41585 12C1.4314 12 1.44696 12 1.46253 12C1.47811 12 1.4937 12 1.50931 12C1.52492 12 1.54054 12 1.55618 12C1.57182 12 1.58747 12 1.60314 12C1.61881 12 1.63449 12 1.65019 12C1.66589 12 1.6816 12 1.69733 12C1.71306 12 1.7288 12 1.74456 12C1.76031 12 1.77609 12 1.79187 12C1.80766 12 1.82346 12 1.83928 12C1.8551 12 1.87093 12 1.88677 12C1.90262 12 1.91848 12 1.93435 12C1.95022 12 1.96611 12 1.98201 12C1.99791 12 2.01383 12 2.02976 12C2.04569 12 2.06164 12 2.07759 12C2.09355 12 2.10952 12 2.12551 12C2.14149 12 2.15749 12 2.17351 12C2.18952 12 2.20555 12 2.22159 12C2.23763 12 2.25368 12 2.26975 12C2.28581 12 2.30189 12 2.31799 12C2.33408 12 2.35019 12 2.36631 12C2.38243 12 2.39856 12 2.41471 12C2.43085 12 2.44701 12 2.46318 12C2.47936 12 2.49554 12 2.51174 12C2.52794 12 2.54415 12 2.56037 12C2.57659 12 2.59283 12 2.60908 12C2.62532 12 2.64158 12 2.65786 12C2.67413 12 2.69042 12 2.70671 12C2.72301 12 2.73932 12 2.75564 12C2.77196 12 2.7883 12 2.80464 12C2.82099 12 2.83735 12 2.85372 12C2.87009 12 2.88647 12 2.90286 12C2.91926 12 2.93566 12 2.95208 12C2.9685 12 2.98493 12 3.00137 12C3.01781 12 3.03426 12 3.05072 12C3.06719 12 3.08366 12 3.10015 12C3.11663 12 3.13313 12 3.14964 12C3.16615 12 3.18267 12 3.1992 12C3.21573 12 3.23227 12 3.24882 12C3.26537 12 3.28194 12 3.29851 12C3.31508 12 3.33167 12 3.34826 12C3.36486 12 3.38147 12 3.39808 12C3.4147 12 3.43133 12 3.44796 12C3.4646 12 3.48125 12 3.49791 12C3.51457 12 3.53124 12 3.54791 12C3.56459 12 3.58128 12 3.59798 12C3.61468 12 3.63139 12 3.64811 12C3.66483 12 3.68156 12 3.69829 12C3.71503 12 3.73178 12 3.74854 12C3.7653 12 3.78207 12 3.79884 12C3.81562 12 3.83241 12 3.8492 12C3.866 12 3.88281 12 3.89962 12C3.91644 12 3.93326 12 3.95009 12C3.96693 12 3.98377 12 4.00062 12C4.01747 12 4.03433 12 4.0512 12C4.06807 12 4.08495 12 4.10184 12C4.11873 12 4.13562 12 4.15253 12C4.16943 12 4.18635 12 4.20327 12C4.22019 12 4.23712 12 4.25406 12C4.271 12 4.28795 12 4.3049 12C4.32186 12 4.33882 12 4.35579 12C4.37277 12 4.38975 12 4.40674 12C4.42373 12 4.44072 12 4.45773 12C4.47473 12 4.49174 12 4.50876 12C4.52578 12 4.54281 12 4.55985 12C4.57688 12 4.59393 12 4.61098 12C4.62803 12 4.64509 12 4.66216 12C4.67922 12 4.6963 12 4.71338 12C4.73046 12 4.74755 12 4.76464 12C4.78174 12 4.79884 12 4.81595 12C4.83306 12 4.85018 12 4.8673 12C4.88442 12 4.90155 12 4.91869 12C4.93583 12 4.95297 12 4.97012 12C4.98727 12 5.00443 12 5.0216 12C5.03876 12 5.05593 12 5.07311 12C5.09029 12 5.10747 12 5.12466 12C5.14185 12 5.15905 12 5.17625 12C5.19345 12 5.21066 12 5.22788 12C5.24509 12 5.26231 12 5.27954 12C5.29677 12 5.314 12 5.33124 12C5.34848 12 5.36572 12 5.38297 12C5.40022 12 5.41748 12 5.43474 12C5.452 12 5.46927 12 5.48654 12C5.50382 12 5.5211 12 5.53838 12C5.55566 12 5.57295 12 5.59025 12C5.60754 12 5.62484 12 5.64214 12C5.65945 12 5.67676 12 5.69407 12C5.71139 12 5.72871 12 5.74603 12C5.76336 12 5.78069 12 5.79802 12C5.81535 12 5.83269 12 5.85004 12C5.86738 12 5.88473 12 5.90208 12C5.91943 12 5.93679 12 5.95415 12C5.97151 12 5.98888 12 6.00625 12C6.02362 12 6.04099 12 6.05837 12C6.07575 12 6.09313 12 6.11052 12C6.1279 12 6.14529 12 6.16269 12C6.18008 12 6.19748 12 6.21488 12C6.23228 12 6.24969 12 6.2671 12C6.28451 12 6.30192 12 6.31934 12C6.33675 12 6.35417 12 6.3716 12C6.38902 12 6.40645 12 6.42388 12C6.44131 12 6.45874 12 6.47618 12C6.49361 12 6.51105 12 6.52849 12C6.54594 12 6.56338 12 6.58083 12C6.59828 12 6.61573 12 6.63318 12C6.65064 12 6.66809 12 6.68555 12C6.70301 12 6.72047 12 6.73794 12C6.7554 12 6.77287 12 6.79034 12C6.80781 12 6.82528 12 6.84275 12C6.86023 12 6.8777 12 6.89518 12C6.91266 12 6.93014 12 6.94762 12C6.96511 12 6.98259 12 7.00008 12C7.01756 12 7.03505 12 7.05254 12C7.07003 12 7.08752 12 7.10502 12C7.12251 12 7.14 12 7.1575 12C7.175 12 7.1925 12 7.21 12C7.22749 12 7.245 12 7.2625 12C7.28 12 7.2975 12 7.31501 12C7.33251 12 7.35002 12 7.36753 12C7.38503 12 7.40254 12 7.42005 12C7.43756 12 7.45507 12 7.47258 12C7.49009 12 7.5076 12 7.52511 12C7.54262 12 7.56014 12 7.57765 12C7.59516 12 7.61267 12 7.63019 12C7.6477 12 7.66522 12 7.68273 12C7.70025 12 7.71776 12 7.73528 12C7.75279 12 7.77031 12 7.78782 12C7.80534 12 7.82285 12 7.84037 12C7.85788 12 7.8754 12 7.89291 12C7.91043 12 7.92794 12 7.94546 12C7.96297 12 7.98049 12 7.998 12C8.01551 12 8.03303 12 8.05054 12C8.06805 12 8.08556 12 8.10308 12C8.12059 12 8.1381 12 8.15561 12C8.17312 12 8.19063 12 8.20813 12C8.22564 12 8.24315 12 8.26066 12C8.27816 12 8.29567 12 8.31317 12C8.33067 12 8.34818 12 8.36568 12C8.38318 12 8.40068 12 8.41818 12C8.43568 12 8.45317 12 8.47067 12C8.48816 12 8.50566 12 8.52315 12C8.54064 12 8.55813 12 8.57562 12C8.59311 12 8.6106 12 8.62808 12C8.64557 12 8.66305 12 8.68053 12C8.69801 12 8.71549 12 8.73297 12C8.75045 12 8.76792 12 8.78539 12C8.80286 12 8.82033 12 8.8378 12C8.85527 12 8.87273 12 8.8902 12C8.90766 12 8.92512 12 8.94258 12C8.96003 12 8.97749 12 8.99494 12C9.01239 12 9.02984 12 9.04729 12C9.06473 12 9.08218 12 9.09962 12C9.11706 12 9.13449 12 9.15193 12C9.16936 12 9.18679 12 9.20422 12C9.22165 12 9.23907 12 9.25649 12C9.27391 12 9.29133 12 9.30874 12C9.32616 12 9.34357 12 9.36098 12C9.37838 12 9.39579 12 9.41318 12C9.43058 12 9.44798 12 9.46537 12C9.48276 12 9.50015 12 9.51753 12C9.53492 12 9.5523 12 9.56967 12C9.58705 12 9.60442 12 9.62178 12C9.63915 12 9.65651 12 9.67387 12C9.69123 12 9.70858 12 9.72593 12C9.74328 12 9.76063 12 9.77797 12C9.79531 12 9.81264 12 9.82997 12C9.8473 12 9.86463 12 9.88195 12C9.89927 12 9.91659 12 9.9339 12C9.95121 12 9.96852 12 9.98582 12C10.0031 12 10.0204 12 10.0377 12C10.055 12 10.0723 12 10.0896 12C10.1068 12 10.1241 12 10.1414 12C10.1587 12 10.1759 12 10.1932 12C10.2104 12 10.2277 12 10.2449 12C10.2622 12 10.2794 12 10.2967 12C10.3139 12 10.3311 12 10.3483 12C10.3656 12 10.3828 12 10.4 12C10.4172 12 10.4344 12 10.4516 12C10.4688 12 10.486 12 10.5032 12C10.5204 12 10.5375 12 10.5547 12C10.5719 12 10.5891 12 10.6062 12C10.6234 12 10.6405 12 10.6577 12C10.6748 12 10.692 12 10.7091 12C10.7262 12 10.7433 12 10.7605 12C10.7776 12 10.7947 12 10.8118 12C10.8289 12 10.846 12 10.8631 12C10.8802 12 10.8973 12 10.9143 12C10.9314 12 10.9485 12 10.9655 12C10.9826 12 10.9997 12 11.0167 12C11.0338 12 11.0508 12 11.0678 12C11.0849 12 11.1019 12 11.1189 12C11.1359 12 11.1529 12 11.1699 12C11.1869 12 11.2039 12 11.2209 12C11.2379 12 11.2548 12 11.2718 12C11.2888 12 11.3057 12 11.3227 12C11.3396 12 11.3566 12 11.3735 12C11.3904 12 11.4074 12 11.4243 12C11.4412 12 11.4581 12 11.475 12C11.4919 12 11.5088 12 11.5257 12C11.5426 12 11.5594 12 11.5763 12C11.5932 12 11.61 12 11.6269 12C11.6437 12 11.6605 12 11.6774 12C11.6942 12 11.711 12 11.7278 12C11.7446 12 11.7614 12 11.7782 12C11.795 12 11.8118 12 11.8285 12C11.8453 12 11.8621 12 11.8788 12C11.8956 12 11.9123 12 11.9291 12C11.9458 12 11.9625 12 11.9792 12C11.9959 12 12.0126 12 12.0293 12C12.046 12 12.0627 12 12.0794 12C12.096 12 12.1127 12 12.1294 12C12.146 12 12.1626 12 12.1793 12C12.1959 12 12.2125 12 12.2291 12C12.2457 12 12.2623 12 12.2789 12C12.2955 12 12.3121 12 12.3287 12C12.3452 12 12.3618 12 12.3783 12C12.3949 12 12.4114 12 12.4279 12C12.4445 12 12.461 12 12.4775 12C12.494 12 12.5105 12 12.5269 12C12.5434 12 12.5599 12 12.5763 12C12.5928 12 12.6092 12 12.6257 12C12.6421 12 12.6585 12 12.6749 12C12.6913 12 12.7077 12 12.7241 12C12.7405 12 12.7569 12 12.7732 12C12.7896 12 12.8059 12 12.8223 12C12.8386 12 12.8549 12 12.8713 12C12.8876 12 12.9039 12 12.9202 12C12.9365 12 12.9527 12 12.969 12C12.9853 12 13.0015 12 13.0177 12C13.034 12 13.0502 12 13.0664 12C13.0826 12 13.0988 12 13.115 12C13.1312 12 13.1474 12 13.1636 12C13.1797 12 13.1959 12 13.212 12C13.2281 12 13.2443 12 13.2604 12C13.2765 12 13.2926 12 13.3087 12C13.3248 12 13.3408 12 13.3569 12C13.3729 12 13.389 12 13.405 12C13.421 12 13.4371 12 13.4531 12C13.4691 12 13.4851 12 13.501 12C13.517 12 13.533 12 13.5489 12C13.5649 12 13.5808 12 13.5967 12C13.6126 12 13.6285 12 13.6444 12C13.6603 12 13.6762 12 13.6921 12C13.7079 12 13.7238 12 13.7396 12C13.7554 12 13.7713 12 13.7871 12C13.8029 12 13.8187 12 13.8344 12C13.8502 12 13.866 12 13.8817 12C13.8975 12 13.9132 12 13.9289 12C13.9446 12 13.9604 12 13.976 12C13.9917 12 14.0074 12 14.0231 12C14.0387 12 14.0544 12 14.07 12C14.0856 12 14.1012 12 14.1168 12C14.1324 12 14.148 12 14.1636 12C14.1791 12 14.1947 12 14.2102 12C14.2257 12 14.2413 12 14.2568 12C14.2723 12 14.2878 12 14.3032 12C14.3187 12 14.3342 12 14.3496 12C14.365 12 14.3805 12 14.3959 12C14.4113 12 14.4267 12 14.442 12C14.4574 12 14.4728 12 14.4881 12C14.5035 12 14.5188 12 14.5341 12C14.5494 12 14.5647 12 14.58 12C14.5952 12 14.6105 12 14.6257 12C14.641 12 14.6562 12 14.6714 12C14.6866 12 14.7018 12 14.717 12C14.7322 12 14.7473 12 14.7625 12C14.7776 12 14.7927 12 14.8079 12C14.823 12 14.838 12 14.8531 12C14.8682 12 14.8832 12 14.8983 12C14.9133 12 14.9283 12 14.9433 12C14.9583 12 14.9733 12 14.9883 12C15.0033 12 15.0182 12 15.0331 12C15.0481 12 15.063 12 15.0779 12C15.0928 12 15.1077 12 15.1225 12C15.1374 12 15.1522 12 15.167 12C15.1819 12 15.1967 12 15.2115 12C15.2262 12 15.241 12 15.2558 12C15.2705 12 15.2852 12 15.3 12C15.3147 12 15.3294 12 15.344 12C15.3587 12 15.3734 12 15.388 12C15.4026 12 15.4173 12 15.4319 12C15.4465 12 15.461 12 15.4756 12C15.4902 12 15.5047 12 15.5192 12C15.5338 12 15.5483 12 15.5627 12C15.5772 12 15.5917 12 15.6061 12C15.6206 12 15.635 12 15.6494 12C15.6638 12 15.6782 12 15.6926 12C15.707 12 15.7213 12 15.7356 12C15.75 12 15.7643 12 15.7786 12C15.7928 12 15.8071 12 15.8214 12C15.8356 12 15.8498 12 15.864 12C15.8783 12 15.8924 12 15.9066 12C15.9208 12 15.9349 12 15.949 12C15.9632 12 15.9773 12 15.9914 12C16.0055 12 16.0195 12 16.0336 12C16.0476 12 16.0616 12 16.0756 12C16.0896 12 16.1036 12 16.1176 12C16.1315 12 16.1455 12 16.1594 12C16.1733 12 16.1872 12 16.2011 12C16.215 12 16.2288 12 16.2427 12C16.2565 12 16.2703 12 16.2841 12C16.2979 12 16.3117 12 16.3254 12C16.3392 12 16.3529 12 16.3666 12C16.3803 12 16.394 12 16.4076 12C16.4213 12 16.4349 12 16.4486 12C16.4622 12 16.4758 12 16.4894 12C16.5029 12 16.5165 12 16.53 12C16.5435 12 16.557 12 16.5705 12C16.584 12 16.5975 12 16.6109 12C16.6244 12 16.6378 12 16.6512 12C16.6646 12 16.6779 12 16.6913 12C16.7046 12 16.718 12 16.7313 12C16.7446 12 16.7579 12 16.7711 12C16.7844 12 16.7976 12 16.8108 12C16.824 12 16.8372 12 16.8504 12C16.8636 12 16.8767 12 16.8898 12C16.903 12 16.9161 12 16.9291 12C16.9422 12 16.9553 12 16.9683 12C16.9813 12 16.9943 12 17.0073 12C17.0203 12 17.0332 12 17.0462 12C17.0591 12 17.072 12 17.0849 12C17.0978 12 17.1106 12 17.1235 12C17.1363 12 17.1491 12 17.1619 12C17.1747 12 17.1875 12 17.2002 12C17.2129 12 17.2257 12 17.2383 12C17.251 12 17.2637 12 17.2763 12C17.289 12 17.3016 12 17.3142 12C17.3268 12 17.3394 12 17.3519 12C17.3645 12 17.377 12 17.3895 12C17.402 12 17.4144 12 17.4269 12C17.4393 12 17.4517 12 17.4641 12C17.4765 12 17.4889 12 17.5012 12C17.5136 12 17.5259 12 17.5382 12C17.5505 12 17.5628 12 17.575 12C17.5872 12 17.5995 12 17.6116 12C17.6238 12 17.636 12 17.6481 12C17.6603 12 17.6724 12 17.6845 12C17.6966 12 17.7086 12 17.7207 12C17.7327 12 17.7447 12 17.7567 12C17.7687 12 17.7806 12 17.7926 12C17.8045 12 17.8164 12 17.8283 12C17.8402 12 17.852 12 17.8638 12C17.8757 12 17.8875 12 17.8992 12C17.911 12 17.9228 12 17.9345 12C17.9462 12 17.9579 12 17.9696 12C17.9812 12 17.9929 12 18.0045 12C18.0161 12 18.0277 12 18.0392 12C18.0508 12 18.0623 12 18.0738 12C18.0853 12 18.0968 12 18.1083 12C18.1197 12 18.1311 12 18.1425 12C18.1539 12 18.1653 12 18.1766 12C18.188 12 18.1993 12 18.2106 12C18.2218 12 18.2331 12 18.2443 12C18.2556 12 18.2668 12 18.2779 12C18.2891 12 18.3002 12 18.3114 12C18.3225 12 18.3336 12 18.3446 12C18.3557 12 18.3667 12 18.3777 12C18.3887 12 18.3997 12 18.4106 12C18.4216 12 18.4325 12 18.4434 12C18.4543 12 18.4651 12 18.476 12C18.4868 12 18.4976 12 18.5084 12C18.5192 12 18.5299 12 18.5406 12C18.5513 12 18.562 12 18.5727 12C18.5833 12 18.594 12 18.6046 12C18.6152 12 18.6257 12 18.6363 12C18.6468 12 18.6573 12 18.6678 12C18.6783 12 18.6888 12 18.6992 12C18.7096 12 18.72 12 18.7304 12C18.7407 12 18.7511 12 18.7614 12C18.7717 12 18.782 12 18.7922 12C18.8024 12 18.8127 12 18.8228 12C18.833 12 18.8432 12 18.8533 12C18.8634 12 18.8735 12 18.8836 12C18.8937 12 18.9037 12 18.9137 12C18.9237 12 18.9337 12 18.9436 12C18.9536 12 18.9635 12 18.9734 12C18.9832 12 18.9931 12 19.0029 12C19.0127 12 19.0225 12 19.0323 12C19.042 12 19.0518 12 19.0614 12C19.0711 12 19.0808 12 19.0904 12C19.1001 12 19.1097 12 19.1193 12C19.1288 12 19.1384 12 19.1479 12C19.1574 12 19.1669 12 19.1763 12C19.1857 12 19.1952 12 19.2045 12C19.2139 12 19.2233 12 19.2326 12C19.2419 12 19.2512 12 19.2605 12C19.2697 12 19.2789 12 19.2881 12C19.2973 12 19.3065 12 19.3156 12C19.3247 12 19.3338 12 19.3429 12C19.3519 12 19.361 12 19.37 12C19.379 12 19.3879 12 19.3969 12C19.4058 12 19.4147 12 19.4236 12C19.4324 12 19.4413 12 19.4501 12C19.4589 12 19.4676 12 19.4764 12C19.4851 12 19.4938 12 19.5025 12C19.5112 12 19.5198 12 19.5284 12C19.537 12 19.5456 12 19.5541 12C19.5627 12 19.5712 12 19.5796 12C19.5881 12 19.5965 12 19.6049 12C19.6133 12 19.6217 12 19.63 12C19.6384 12 19.6467 12 19.655 12C19.6632 12 19.6715 12 19.6797 12C19.6879 12 19.696 12 19.7042 12C19.7123 12 19.7204 12 19.7285 12C19.7365 12 19.7446 12 19.7526 12C19.7606 12 19.7685 12 19.7764 12C19.7844 12 19.7923 12 19.8001 12C19.808 12 19.8158 12 19.8236 12C19.8314 12 19.8391 12 19.8469 12C19.8546 12 19.8623 12 19.8699 12C19.8776 12 19.8852 12 19.8928 12C19.9004 12 19.9079 12 19.9154 12C19.9229 12 19.9304 12 19.9378 12C19.9453 12 19.9527 12 19.9601 12C19.9674 12 19.9748 12 19.9821 12C19.9894 12 19.9966 12 20.0039 12C20.0111 12 20.0183 12 20.0254 12C20.0326 12 20.0397 12 20.0468 12C20.0539 12 20.0609 12 20.0679 12C20.075 12 20.0819 12 20.0889 12C20.0958 12 20.1027 12 20.1096 12C20.1165 12 20.1233 12 20.1301 12C20.1369 12 20.1436 12 20.1504 12C20.1571 12 20.1638 12 20.1704 12C20.1771 12 20.1837 12 20.1903 12C20.1968 12 20.2034 12 20.2099 12C20.2164 12 20.2228 12 20.2293 12C20.2357 12 20.2421 12 20.2484 12C20.2548 12 20.2611 12 20.2674 12C20.2737 12 20.2799 12 20.2861 12C20.2923 12 20.2985 12 20.3046 12C20.3108 12 20.3169 12 20.3229 12C20.329 12 20.335 12 20.341 12C20.347 12 20.3529 12 20.3588 12C20.3647 12 20.3706 12 20.3764 12C20.3822 12 20.388 12 20.3938 12C20.3995 12 20.4052 12 20.4109 12C20.4166 12 20.4222 12 20.4278 12C20.4334 12 20.439 12 20.4445 12C20.45 12 20.4555 12 20.461 12C20.4664 12 20.4718 12 20.4772 12C20.4826 12 20.4879 12 20.4932 12C20.4985 12 20.5037 12 20.5089 12C20.5142 12 20.5193 12 20.5245 12C20.5296 12 20.5347 12 20.5398 12C20.5448 12 20.5498 12 20.5548 12C20.5598 12 20.5647 12 20.5696 12C20.5745 12 20.5794 12 20.5842 12C20.589 12 20.5938 12 20.5986 12C20.6033 12 20.608 12 20.6127 12C20.6173 12 20.6219 12 20.6265 12C20.6311 12 20.6357 12 20.6402 12C20.6447 12 20.6491 12 20.6535 12C20.658 12 20.6623 12 20.6667 12C20.671 12 20.6753 12 20.6796 12C20.6838 12 20.6881 12 20.6922 12C20.6964 12 20.7006 12 20.7047 12C20.7088 12 20.7128 12 20.7168 12C20.7209 12 20.7248 12 20.7288 12C20.7327 12 20.7366 12 20.7404 12C20.7443 12 20.7481 12 20.7519 12C20.7557 12 20.7594 12 20.7631 12C20.7668 12 20.7704 12 20.774 12C20.7776 12 20.7812 12 20.7847 12C20.7882 12 20.7917 12 20.7951 12C20.7986 12 20.802 12 20.8053 12C20.8087 12 20.812 12 20.8153 12C20.8186 12 20.8218 12 20.825 12C20.8282 12 20.8313 12 20.8344 12C20.8375 12 20.8406 12 20.8436 12C20.8466 12 20.8496 12 20.8525 12C20.8555 12 20.8583 12 20.8612 12C20.864 12 20.8669 12 20.8696 12C20.8724 12 20.8751 12 20.8778 12C20.8805 12 20.8831 12 20.8857 12C20.8883 12 20.8908 12 20.8933 12C20.8959 12 20.8983 12 20.9007 12C20.9032 12 20.9055 12 20.9079 12C20.9102 12 20.9125 12 20.9147 12C20.917 12 20.9192 12 20.9214 12C20.9235 12 20.9256 12 20.9277 12C20.9298 12 20.9318 12 20.9338 12C20.9358 12 20.9377 12 20.9396 12C20.9415 12 20.9434 12 20.9452 12C20.947 12 20.9488 12 20.9505 12C20.9522 12 20.9539 12 20.9555 12C20.9572 12 20.9587 12 20.9603 12C20.9618 12 20.9633 12 20.9648 12C20.9663 12 20.9677 12 20.969 12C20.9704 12 20.9717 12 20.973 12C20.9743 12 20.9755 12 20.9767 12C20.9779 12 20.979 12 20.9801 12C20.9812 12 20.9823 12 20.9833 12C20.9843 12 20.9853 12 20.9862 12C20.9871 12 20.988 12 20.9888 12C20.9896 12 20.9904 12 20.9911 12C20.9919 12 20.9926 12 20.9932 12C20.9939 12 20.9945 12 20.995 12C20.9956 12 20.9961 12 20.9965 12C20.997 12 20.9974 12 20.9978 12C20.9981 12 20.9985 12 20.9987 12C20.999 12 20.9993 12 20.9994 12C20.9996 12 20.9998 12 20.9999 12C21 12 21 12 21 11Z" fill="black"/>
</svg>
