<svg width="50" height="50" viewBox="0 0 58 58" fill="none" xmlns="http://www.w3.org/2000/svg">
    <path fill-rule="evenodd" clip-rule="evenodd" d="M38 28C38 33.5228 33.5228 38 28 38C22.4772 38 18 33.5228 18 28C18 22.4772 22.4772 18 28 18C33.5228 18 38 22.4772 38 28ZM34.8383 37.8622C32.8982 39.21 30.5413 40 28 40C21.3726 40 16 34.6274 16 28C16 21.3726 21.3726 16 28 16C34.6274 16 40 21.3726 40 28C40 31.3644 38.6155 34.4054 36.3851 36.5843L42.3854 42.7554L40.9711 44.1696L34.8383 37.8622Z" fill="#252A2C"/>
</svg>
