<svg width="28" height="28" viewBox="0 0 28 28" fill="#E5BB71" xmlns="http://www.w3.org/2000/svg">
    <path d="M20.7587 8.216C20.6155 8.216 20.4757 8.20894 20.3382 8.21283C20.3176 8.21009 20.2973 8.19702 20.2759 8.19702H6.75883C6.7177 8.19702 6.67855 8.21315 6.64038 8.22283C2.70113 8.41883 0 10.5443 0 13.5216C0 15.1527 0.465172 16.6767 1.30977 17.8089C2.2814 19.1114 3.66472 19.801 5.31032 19.801C6.94302 19.801 8.86216 18.9965 10.4439 17.6481C12.0902 16.2447 13.0344 14.5665 13.0344 13.0433C13.0344 12.7805 13.022 12.5307 12.9996 12.2907C13.218 12.0287 13.6733 11.5952 14.0001 11.5952C14.3038 11.5952 14.7437 11.9792 15.0004 12.2902C14.978 12.5305 14.9656 12.7807 14.9656 13.0436C14.9656 14.5667 15.9098 16.2453 17.5561 17.6487C19.1378 18.9971 21.057 19.8022 22.6897 19.8022C24.3352 19.8022 25.7185 19.1138 26.6902 17.8113C27.5348 16.6792 28 15.1574 28 13.5264C28 10.3997 25.0223 8.216 20.7587 8.216ZM5.31032 18.8366C2.32515 18.8366 0.965508 16.0839 0.965508 13.5263C0.965508 10.9681 3.54616 9.18151 7.24134 9.18151C10.7154 9.18151 12.0689 10.2643 12.0689 13.0435C12.0689 15.6424 8.34214 18.8366 5.31032 18.8366ZM14.0001 10.6298C13.5396 10.6298 13.1113 10.871 12.7833 11.14C12.5246 10.2958 12.0612 9.64531 11.379 9.16258H16.6211C15.9388 9.64537 15.4754 10.2957 15.2166 11.1399C14.8888 10.8708 14.4606 10.6298 14.0001 10.6298ZM22.6897 18.8366C19.6579 18.8366 15.9311 15.6424 15.9311 13.0436C15.9311 10.2643 17.2846 9.18156 20.7587 9.18156C24.4538 9.18156 27.0345 10.9682 27.0345 13.5264C27.0345 16.0839 25.6749 18.8366 22.6897 18.8366Z" fill="#E5BB71"/>
    <path d="M4.82797 10.6304C4.75349 10.6304 2.99633 10.6565 2.42856 12.9271C2.36398 13.1857 2.5212 13.4479 2.77993 13.5126C2.81919 13.5224 2.85851 13.5271 2.89729 13.5271C3.11358 13.5271 3.3104 13.3807 3.3653 13.1612C3.73712 11.6738 4.71783 11.5994 4.8335 11.5959C5.09764 11.5928 5.3107 11.3778 5.3107 11.1131C5.31075 10.8465 5.09458 10.6304 4.82797 10.6304Z" fill="#E5BB71"/>
    <path d="M25.571 12.927C25.0033 10.6564 23.2461 10.6302 23.1716 10.6302C22.905 10.6302 22.6855 10.8464 22.6855 11.113C22.6855 11.3796 22.8985 11.5957 23.1651 11.5957C23.2761 11.5989 24.2613 11.6696 24.6342 13.1611C24.6891 13.3806 24.886 13.527 25.1022 13.527C25.141 13.527 25.1804 13.5223 25.2197 13.5125C25.4784 13.4477 25.6356 13.1856 25.571 12.927Z" fill="#E5BB71"/>
</svg>
