<svg width="28" height="28" viewBox="0 0 28 28" fill="none" xmlns="http://www.w3.org/2000/svg">
    <path d="M24.8709 20.5342C24.4256 19.7625 23.7684 19.2606 22.9178 19.0424C22.7146 18.9903 22.5098 18.9576 22.3065 18.9446C22.3328 18.6523 22.3465 18.3578 22.3465 18.0638C22.3465 17.6906 22.3251 17.317 22.2827 16.9469C23.7946 16.7401 24.961 15.4833 24.961 13.9687C24.961 12.31 23.562 10.9606 21.8425 10.9606C21.6738 10.9606 21.5073 10.9741 21.3439 10.9994C21.6974 10.1479 21.892 9.21971 21.892 8.24868C21.892 7.61737 21.8102 6.99437 21.6484 6.38969C22.889 5.86567 23.7146 4.67841 23.7146 3.3355C23.7146 1.4963 22.1622 0 20.2541 0C19.0908 0 18.0142 0.566453 17.3784 1.4793C16.3654 1.03152 15.2529 0.796742 14.1304 0.796742C13.0079 0.796742 11.8954 1.03152 10.8823 1.4793C10.2464 0.566453 9.16978 0 8.00652 0C6.09831 0 4.54584 1.49636 4.54584 3.33561C4.54584 4.67857 5.37152 5.86584 6.6121 6.38985C6.45028 6.9947 6.36847 7.61775 6.36847 8.24879C6.36847 9.21982 6.56316 10.148 6.9166 10.9995C6.75314 10.9742 6.58673 10.9607 6.41807 10.9607C4.69848 10.9607 3.29952 12.3101 3.29952 13.9688C3.29952 15.4833 4.466 16.74 5.97778 16.9471C5.9354 17.3173 5.91396 17.6911 5.91396 18.0639C5.91396 18.366 5.92845 18.6685 5.95618 18.9688C5.93507 18.9684 5.91402 18.9677 5.8928 18.9677C5.62516 18.9677 5.35281 19.0028 5.0832 19.0718C4.23254 19.29 3.57547 19.7918 3.13009 20.5636C2.35927 21.8994 2.39958 23.8736 2.78141 25.2376C3.2369 26.8641 4.77526 28 6.52263 28C6.59586 28 6.6692 27.9976 6.74237 27.9935C6.74554 27.9935 6.74866 27.9935 6.75183 27.9933C6.75664 27.9931 6.76145 27.9927 6.76627 27.9924C6.77195 27.9921 6.77759 27.9917 6.78322 27.9913C8.21565 27.9134 9.47669 27.0679 10.0731 25.8477C11.3059 26.612 12.6948 27.0128 14.1302 27.0128C15.5004 27.0128 16.8352 26.6438 18.0286 25.9419C18.0479 25.9779 18.0668 26.0141 18.0873 26.0496C18.6032 26.9436 19.4524 27.5809 20.4783 27.844C20.8057 27.9279 21.1421 27.9706 21.4782 27.9706C23.2256 27.9706 24.7639 26.8346 25.2192 25.2081C25.6014 23.8442 25.6417 21.87 24.8709 20.5342ZM5.63992 3.33561C5.63992 2.09962 6.70157 1.09402 8.00652 1.09402C8.94004 1.09402 9.78906 1.61623 10.1695 2.42446C10.233 2.55948 10.349 2.66263 10.4904 2.71009C10.6319 2.75751 10.7866 2.74509 10.9187 2.67575C11.8965 2.16218 13.007 1.89077 14.1302 1.89077C15.2534 1.89077 16.3639 2.16218 17.3417 2.67575C17.4738 2.74515 17.6286 2.75756 17.77 2.71009C17.9115 2.66263 18.0274 2.55943 18.091 2.42446C18.4714 1.61623 19.3204 1.09402 20.254 1.09402C21.5589 1.09402 22.6206 2.09956 22.6206 3.33561C22.6206 4.21012 22.0886 4.98772 21.2826 5.35511C21.1526 5.0592 21.0031 4.77105 20.835 4.49427C20.6781 4.23609 20.3418 4.15401 20.0835 4.31074C19.8254 4.46759 19.7432 4.80402 19.9 5.0622C20.1231 5.42943 20.3082 5.81968 20.4502 6.22223C20.4536 6.23208 20.4577 6.24148 20.4616 6.251C20.6845 6.8933 20.7979 7.56514 20.7979 8.24879C20.7979 11.5789 18.0989 14.319 14.6771 14.5853V10.518C15.469 10.2468 16.0284 9.42419 16.0284 8.69794C16.0284 8.2997 15.8434 7.37341 14.1302 7.37341C12.4169 7.37341 12.232 8.2997 12.232 8.69794C12.232 9.42419 12.7912 10.2468 13.5832 10.518V14.5853C10.1615 14.3191 7.46238 11.579 7.46238 8.24879C7.46238 7.55513 7.57881 6.87307 7.8085 6.22152C7.85996 6.07551 7.84716 5.91462 7.77323 5.77855C7.69934 5.64249 7.57127 5.54422 7.42077 5.50791C6.37224 5.25514 5.63992 4.36182 5.63992 3.33561ZM14.1303 18.8168C13.8282 18.8168 13.5833 19.0617 13.5833 19.3637V21.0217C11.7302 20.7554 10.3013 19.158 10.3013 17.2324C10.3013 16.453 10.5403 15.695 10.9794 15.0584C11.9428 15.471 13.0091 15.7008 14.1303 15.7008C15.2515 15.7008 16.3178 15.471 17.2813 15.0584C17.7204 15.695 17.9594 16.453 17.9594 17.2324C17.9594 19.1579 16.5304 20.7554 14.6774 21.0217V19.3637C14.6773 19.0617 14.4324 18.8168 14.1303 18.8168ZM13.3261 8.69794C13.3261 8.64462 13.3261 8.62252 13.4165 8.57801C13.5004 8.53672 13.7046 8.46748 14.1303 8.46748C14.556 8.46748 14.7603 8.53677 14.8441 8.57801C14.9345 8.62252 14.9345 8.64462 14.9345 8.69794C14.9345 9.00627 14.5586 9.51645 14.1303 9.51645C13.702 9.51639 13.3261 9.00627 13.3261 8.69794ZM8.96612 25.5323C8.59852 26.1692 7.98935 26.6243 7.25085 26.8137C7.07208 26.8595 6.8898 26.8884 6.70693 26.9001C6.70644 26.9001 6.70595 26.9001 6.70551 26.9002C6.64464 26.904 6.58372 26.9059 6.52285 26.9059C5.26405 26.906 4.15887 26.0986 3.83512 24.9425C3.52537 23.8361 3.46921 22.1651 4.07783 21.1103C4.37467 20.596 4.79243 20.2757 5.35511 20.1315C5.53596 20.0851 5.71692 20.0616 5.89291 20.0616C6.07791 20.0616 6.25745 20.0872 6.43098 20.1346C6.43918 20.1371 6.44733 20.1396 6.4557 20.1417C7.86483 20.5445 8.87638 22.3798 9.21452 23.5878C9.39854 24.2452 9.31033 24.9358 8.96612 25.5323ZM17.7331 23.2634C17.5826 23.8008 17.5592 24.3532 17.6577 24.8869C16.5861 25.5624 15.3744 25.9188 14.1304 25.9188C12.7924 25.9188 11.4994 25.5106 10.3721 24.736C10.435 24.2588 10.4017 23.7699 10.2681 23.2929C9.86995 21.8706 8.74885 19.8812 7.08323 19.2042C7.03358 18.8278 7.0082 18.4457 7.0082 18.0638C7.0082 17.5462 7.05458 17.0268 7.14612 16.5204C7.17615 16.3542 7.1278 16.1836 7.01504 16.0578C6.90227 15.9321 6.73772 15.8654 6.56944 15.8774C6.5193 15.881 6.46849 15.8827 6.41834 15.8827C5.30201 15.8827 4.39381 15.024 4.39381 13.9686C4.39381 12.9132 5.30201 12.0545 6.41834 12.0545C6.95237 12.0545 7.45445 12.2492 7.83519 12.6025C8.41903 13.3785 9.15441 14.0426 9.99939 14.5548C9.48527 15.3482 9.20741 16.2781 9.20741 17.2324C9.20741 19.9469 11.4159 22.1554 14.1304 22.1554C16.845 22.1554 19.0535 19.9469 19.0535 17.2324C19.0535 16.2781 18.7756 15.3482 18.2615 14.5548C19.1065 14.0427 19.8419 13.3785 20.4257 12.6025C20.8065 12.2491 21.3085 12.0545 21.8426 12.0545C22.9589 12.0545 23.867 12.9132 23.867 13.9686C23.867 15.024 22.9589 15.8827 21.8426 15.8827C21.7925 15.8827 21.7416 15.8809 21.6913 15.8774C21.523 15.8654 21.3584 15.9321 21.2457 16.0578C21.133 16.1836 21.0845 16.3542 21.1146 16.5204C21.2061 17.0263 21.2525 17.5456 21.2525 18.0638C21.2525 18.4025 21.2326 18.7418 21.1935 19.0764C19.376 19.6344 18.1529 21.7641 17.7331 23.2634ZM24.166 24.9132C23.8424 26.0693 22.7372 26.8767 21.4784 26.8767C21.234 26.8767 20.989 26.8457 20.7503 26.7844C20.0117 26.595 19.4025 26.1399 19.035 25.503C18.6908 24.9064 18.6026 24.2158 18.7866 23.5586C19.1427 22.2867 20.2453 20.3193 21.7724 20.061C21.7784 20.06 21.7843 20.059 21.7902 20.0578C21.8943 20.0412 22.0003 20.0324 22.1082 20.0324C22.2843 20.0324 22.4652 20.0559 22.646 20.1023C23.2087 20.2466 23.6265 20.5668 23.9234 21.0812C24.5319 22.1357 24.4758 23.8068 24.166 24.9132Z" fill="black"/>
    <path d="M17.569 6.19641C17.0642 6.19641 16.6523 6.59055 16.6523 7.07371C16.6523 7.55693 17.0641 7.95107 17.569 7.95107C18.0739 7.95107 18.4856 7.55693 18.4856 7.07371C18.4856 6.59055 18.0739 6.19641 17.569 6.19641Z" fill="black"/>
    <path d="M10.6901 6.19641C10.1852 6.19641 9.77344 6.59055 9.77344 7.07371C9.77344 7.55693 10.1852 7.95107 10.6901 7.95107C11.1949 7.95107 11.6067 7.55693 11.6067 7.07371C11.6067 6.59055 11.1949 6.19641 10.6901 6.19641Z" fill="black"/>
    <path d="M19.7366 3.09412L19.7239 3.08149C19.507 2.87127 19.1599 2.87581 18.9496 3.09275C18.7393 3.30965 18.7438 3.65511 18.9608 3.86538C18.9612 3.86571 18.9637 3.86833 18.9642 3.86872C19.0707 3.97525 19.2099 4.0284 19.3493 4.0284C19.4892 4.0284 19.6291 3.97492 19.7361 3.86822C19.9497 3.65516 19.9494 3.30817 19.7366 3.09412Z" fill="black"/>
    <path d="M14.129 17.2323C13.8269 17.2323 13.582 17.4772 13.582 17.7793V17.7922C13.582 18.0943 13.8269 18.3392 14.129 18.3392C14.4311 18.3392 14.676 18.0943 14.676 17.7922V17.7793C14.676 17.4772 14.4311 17.2323 14.129 17.2323Z" fill="black"/>
</svg>
