<svg width="28" height="28" viewBox="0 0 28 28" fill="none" xmlns="http://www.w3.org/2000/svg">
    <path d="M27.5662 24.0402L13.9769 10.4509C13.4 9.87414 12.4621 9.87354 11.8861 10.4496L11.1877 11.1479C10.9091 11.4264 10.7558 11.7975 10.7559 12.1928C10.756 12.588 10.9099 12.9596 11.1891 13.2387L24.7784 26.828C25.0671 27.1166 25.4462 27.261 25.8251 27.261C26.2033 27.261 26.5815 27.1171 26.8693 26.8294L27.5677 26.131C28.1436 25.5549 28.143 24.617 27.5662 24.0402ZM11.8861 12.5418C11.8861 12.5418 11.886 12.5418 11.886 12.5417C11.7929 12.4486 11.7415 12.3245 11.7415 12.1924C11.7415 12.0607 11.7922 11.9372 11.8846 11.8448L12.583 11.1465C12.6787 11.0508 12.8043 11.0031 12.9303 11.0031C13.0568 11.0031 13.1834 11.0513 13.2799 11.1478L15.131 12.9989L13.7371 14.3928L11.8861 12.5418ZM26.8706 25.4341L26.1723 26.1324C25.9805 26.3241 25.6678 26.3235 25.4753 26.1311L14.434 15.0898L15.8279 13.6959L26.8692 24.7371C27.0618 24.9296 27.0624 25.2423 26.8706 25.4341Z" fill="black"/>
    <path d="M7.77025 10.3579C7.59804 10.1487 7.28796 10.1187 7.07769 10.2897C7.07162 10.2945 6.47503 10.7711 5.88298 10.5895C5.36034 10.4288 4.91485 9.77975 4.59477 8.7128C4.17148 7.30181 3.48363 6.36528 2.55027 5.92899C1.40813 5.39524 0.342211 5.84028 0.297313 5.85942C0.0484847 5.96601 -0.0659762 6.25274 0.038805 6.50239C0.143586 6.75203 0.431844 6.86961 0.682258 6.76685C0.711571 6.75471 1.40774 6.47619 2.14526 6.82772C2.80725 7.14332 3.31371 7.8728 3.6507 8.99597C4.07764 10.4191 4.73493 11.2732 5.60441 11.5349C5.79625 11.5926 5.98372 11.6166 6.16271 11.6166C7.01305 11.6166 7.67313 11.0764 7.70638 11.0487C7.91463 10.8752 7.94246 10.5671 7.77025 10.3579Z" fill="black"/>
    <path d="M9.24877 7.89332C9.07661 7.68431 8.76648 7.65412 8.5562 7.82513C8.55013 7.82994 7.95382 8.30676 7.3615 8.12498C6.83885 7.96425 6.39337 7.31522 6.07328 6.24827C5.65 4.83728 4.96214 3.90076 4.02879 3.46446C2.88675 2.93082 1.82067 3.37576 1.77583 3.3949C1.527 3.50148 1.41254 3.78821 1.51732 4.03786C1.6221 4.28751 1.91025 4.40492 2.16077 4.30233C2.19014 4.29019 2.88631 4.01166 3.62377 4.36319C4.28577 4.6788 4.79223 5.40827 5.12921 6.53144C5.55616 7.95457 6.21345 8.80868 7.08292 9.07036C7.27477 9.12811 7.46223 9.15206 7.64123 9.15206C8.49156 9.15206 9.15164 8.61186 9.18489 8.58414C9.3932 8.41067 9.42103 8.10256 9.24877 7.89332Z" fill="black"/>
    <path d="M11.2195 5.42975C11.0473 5.22063 10.7372 5.19044 10.5269 5.36156C10.5209 5.36637 9.92441 5.84297 9.3322 5.66141C8.80955 5.50068 8.36407 4.85165 8.04398 3.7847C7.6207 2.37371 6.93284 1.43718 5.99949 1.00089C4.8574 0.467136 3.79138 0.912183 3.74653 0.931323C3.4977 1.03791 3.38324 1.32464 3.48802 1.57428C3.59281 1.82393 3.88095 1.94151 4.13148 1.83875C4.16073 1.82672 4.85685 1.5482 5.59448 1.89962C6.25647 2.21522 6.76293 2.9447 7.09991 4.06787C7.52686 5.491 8.18415 6.34511 9.05362 6.60679C9.24547 6.66454 9.43294 6.6885 9.61193 6.6885C10.4623 6.6885 11.1223 6.14829 11.1556 6.12057C11.3638 5.9471 11.3917 5.63899 11.2195 5.42975Z" fill="black"/>
</svg>
