<svg width="28" height="28" viewBox="0 0 28 28" fill="none" xmlns="http://www.w3.org/2000/svg">
    <path d="M27.9291 12.0057L22.6079 3.19876C22.0985 2.35592 20.9301 1.69562 19.9478 1.69562H18.482L17.5518 0.841077C17.461 0.757624 17.3421 0.711304 17.2189 0.711304H10.8207C10.6841 0.711304 10.5536 0.768069 10.4606 0.868038L9.68975 1.69562H8.13788C7.15307 1.69562 5.978 2.35324 5.4629 3.1928L0.0726778 11.9782C0.00393562 12.0902 -0.0170644 12.2249 0.0140528 12.3525C0.0452794 12.48 0.126162 12.5899 0.238654 12.6575L4.87933 15.4459C5.11257 15.586 5.41477 15.5105 5.55477 15.2775L6.16481 14.2622V26.7964C6.16481 27.0682 6.3852 27.2886 6.657 27.2886H21.4221C21.6939 27.2886 21.9143 27.0682 21.9143 26.7964V14.4181L22.4454 15.302C22.5126 15.4139 22.6216 15.4945 22.7482 15.5261C22.875 15.5578 23.009 15.5376 23.1208 15.4705L27.7615 12.6821C27.8735 12.6147 27.9542 12.5056 27.9857 12.3787C28.017 12.2518 27.9967 12.1176 27.9291 12.0057ZM17.6851 2.30019L15.4488 4.90923L14.6962 4.15651L17.0948 1.7578L17.6851 2.30019ZM15.7649 1.69568L14.0001 3.4605L12.2352 1.69568H15.7649ZM10.9425 1.79494L13.304 4.15651L12.5513 4.90917L10.3902 2.38786L10.9425 1.79494ZM23.0355 14.3732L21.8439 12.3898C21.7301 12.2003 21.5044 12.1096 21.2904 12.169C21.0774 12.2282 20.9298 12.4221 20.9298 12.6433V26.3042H7.14908V12.4875C7.14908 12.2663 7.00153 12.0724 6.78847 12.0132C6.57469 11.954 6.34894 12.0446 6.23503 12.234L4.96447 14.3486L1.1714 12.0696L6.3018 3.70758C6.64365 3.15058 7.48442 2.68 8.13783 2.68H9.34412L12.1498 5.95332C12.2391 6.05744 12.3676 6.11957 12.5046 6.12482C12.5109 6.12504 12.5173 6.1252 12.5235 6.1252C12.6538 6.1252 12.779 6.07352 12.8715 5.98105L14 4.85251L15.1285 5.98105C15.2209 6.07352 15.3462 6.1252 15.4765 6.1252C15.4827 6.1252 15.4891 6.12509 15.4954 6.12482C15.6324 6.11951 15.7609 6.05739 15.8502 5.95332L18.6559 2.68H19.9477C20.5963 2.68 21.4286 3.15075 21.7652 3.70785L26.8314 12.0925L23.0355 14.3732Z" fill="black"/>
</svg>
