<svg width="28" height="28" viewBox="0 0 28 28" fill="#E5BB71" xmlns="http://www.w3.org/2000/svg">
    <g clip-path="url(#clip0)">
        <path d="M20.2227 2.07408H17.6301V0.518547C17.6301 0.232203 17.3982 0 17.1116 0H10.8894C10.6028 0 10.3709 0.232148 10.3709 0.518547V2.07408H7.77831C7.4917 2.07408 7.25977 2.30623 7.25977 2.59263V27.4815C7.25977 27.7679 7.4917 28.0001 7.77831 28.0001H20.2228C20.5094 28.0001 20.7413 27.7679 20.7413 27.4815V2.59257C20.7412 2.30623 20.5093 2.07408 20.2227 2.07408ZM11.4079 1.03704H16.5931V2.07408H11.4079V1.03704ZM19.7042 26.963H8.2968V3.11112H10.8894H17.1116H19.7042V26.963Z" fill="#E5BB71"/>
        <path d="M16.4557 13.6494C16.3402 13.5233 16.1711 13.4608 16.0004 13.4868L13.1739 13.8904L14.4965 9.48224C14.5786 9.20804 14.4231 8.91891 14.1487 8.83666C13.8722 8.75413 13.5851 8.9101 13.5031 9.18453L11.9475 14.3697C11.8969 14.5391 11.9359 14.7227 12.0513 14.8568C12.1668 14.9908 12.34 15.0566 12.5177 15.0318L15.3984 14.6204L14.013 20.6241C13.9487 20.9033 14.1229 21.1815 14.4019 21.2461C14.4409 21.255 14.4804 21.2593 14.5189 21.2593C14.7549 21.2593 14.968 21.0973 15.0237 20.8575L16.5792 14.1168C16.6177 13.9502 16.5716 13.7752 16.4557 13.6494Z" fill="#E5BB71"/>
    </g>
    <defs>
        <clipPath id="clip0">
            <rect width="28" height="28" fill="white"/>
        </clipPath>
    </defs>
</svg>
