<svg width="28" height="28" viewBox="0 0 28 28" fill="#E5BB71" xmlns="http://www.w3.org/2000/svg">
    <path d="M21.9851 6.28573H17.6863L18.372 4.57144H20.8423C21.1578 4.57144 21.4297 4.33798 21.4297 4.02238V0.593797C21.4297 0.27825 21.1578 0 20.8423 0H7.12795C6.81241 0 6.57249 0.27825 6.57249 0.593797V4.02238C6.57249 4.33792 6.81235 4.57144 7.12795 4.57144H9.59824L10.284 6.28573H5.98515C5.6696 6.28573 5.42969 6.56398 5.42969 6.87952V27.451C5.42969 27.7666 5.66955 28 5.98515 28H21.9851C22.3007 28 22.5725 27.7666 22.5725 27.451V6.87952C22.5725 6.56398 22.3007 6.28573 21.9851 6.28573ZM9.9851 3.42858H7.71535V1.14286H20.2868V3.42858H17.9851H9.9851ZM17.1411 4.57144L16.4554 6.28573H11.5148L10.8291 4.57144H17.1411ZM21.4297 26.8571H6.57249V7.42859H11.128H16.8423H21.4297V26.8571Z" fill="#E5BB71"/>
    <path d="M13.9835 11.4513C13.668 11.4513 13.4121 11.7072 13.4121 12.0227C13.4121 12.3383 13.668 12.5942 13.9835 12.5942C16.5042 12.5942 18.555 14.6449 18.555 17.1656C18.555 17.4812 18.8109 17.7371 19.1264 17.7371C19.442 17.7371 19.6978 17.4812 19.6978 17.1656C19.6978 14.0147 17.1344 11.4513 13.9835 11.4513Z" fill="#E5BB71"/>
    <path d="M13.9838 21.737C11.4631 21.737 9.41239 19.6862 9.41239 17.1655C9.41239 16.85 9.15651 16.5941 8.84096 16.5941C8.52541 16.5941 8.26953 16.85 8.26953 17.1655C8.26953 20.3164 10.8329 22.8798 13.9838 22.8798C14.2994 22.8798 14.5552 22.624 14.5552 22.3084C14.5552 21.9929 14.2994 21.737 13.9838 21.737Z" fill="#E5BB71"/>
</svg>
