<svg width="28" height="28" viewBox="0 0 28 28" fill="none" xmlns="http://www.w3.org/2000/svg">
    <path d="M18.4833 16.4066H18.1016V10.3261C18.1019 10.2694 18.0908 10.2132 18.0691 10.1609C18.0474 10.1085 18.0154 10.061 17.9751 10.0212C17.9347 9.98142 17.8868 9.95008 17.8342 9.92905C17.7815 9.90803 17.7252 9.89774 17.6685 9.8988H17.1719V1.93914C17.2812 1.33146 17.1609 0.808042 16.809 0.456292C15.9504 -0.402301 14.0575 0.183675 12.4219 1.81916C10.9546 3.28648 10.3359 4.95068 10.8281 5.89748V9.8988H10.3315C10.2748 9.89774 10.2185 9.90803 10.1658 9.92905C10.1132 9.95008 10.0653 9.98142 10.0249 10.0212C9.9846 10.061 9.95263 10.1085 9.9309 10.1609C9.90917 10.2132 9.89814 10.2694 9.89844 10.3261V16.4066H9.51666C9.45971 16.4054 9.40309 16.4156 9.3501 16.4365C9.29711 16.4574 9.2488 16.4886 9.20799 16.5283C9.16718 16.5681 9.13468 16.6155 9.11239 16.668C9.09009 16.7204 9.07845 16.7767 9.07812 16.8337V25.861C9.07873 26.4127 9.2978 26.9418 9.68743 27.3325C10.0771 27.7231 10.6055 27.9436 11.1573 27.9457H16.8427C17.3945 27.9436 17.9229 27.7231 18.3126 27.3325C18.7022 26.9418 18.9213 26.4127 18.9219 25.861V16.8337C18.9216 16.7767 18.9099 16.7204 18.8876 16.668C18.8653 16.6155 18.8328 16.5681 18.792 16.5283C18.7512 16.4886 18.7029 16.4574 18.6499 16.4365C18.5969 16.4156 18.5403 16.4054 18.4833 16.4066ZM13.0448 2.43789C14.0956 1.38707 15.1342 0.935628 15.7409 0.935628C15.939 0.935628 16.0909 0.983808 16.1822 1.07503C16.5527 1.44548 16.2134 2.81825 14.8194 4.21234C13.4253 5.60643 12.0526 5.94555 11.6821 5.57515C11.3116 5.20475 11.6507 3.83193 13.0448 2.43789ZM11.7031 6.5452C11.8377 6.5721 11.9745 6.5863 12.1118 6.58764C13.0572 6.58764 14.3141 5.95873 15.4422 4.83102C15.765 4.50798 16.0234 4.17537 16.2969 3.84298V9.8988H11.7031V6.5452ZM10.7734 10.7738H17.2266V16.4066H10.7734V10.7738ZM18.0469 25.861C18.0465 26.1808 17.9197 26.4874 17.6941 26.714C17.4685 26.9407 17.1625 27.0689 16.8427 27.0707H11.1573C10.8375 27.0689 10.5315 26.9407 10.3059 26.714C10.0803 26.4874 9.95347 26.1808 9.95312 25.861V17.2816H18.0469V25.861Z" fill="black"/>
    <path d="M11.4844 25.3548C11.6004 25.3548 11.7117 25.3088 11.7937 25.2267C11.8758 25.1447 11.9219 25.0334 11.9219 24.9173V19.5531C11.9219 19.4371 11.8758 19.3258 11.7937 19.2437C11.7117 19.1617 11.6004 19.1156 11.4844 19.1156C11.3683 19.1156 11.2571 19.1617 11.175 19.2437C11.093 19.3258 11.0469 19.4371 11.0469 19.5531V24.9173C11.0469 25.0334 11.093 25.1447 11.175 25.2267C11.2571 25.3088 11.3683 25.3548 11.4844 25.3548Z" fill="black"/>
</svg>
