<svg width="28" height="28" viewBox="0 0 28 28" fill="none" xmlns="http://www.w3.org/2000/svg">
    <path d="M18.7261 12.9655C18.3863 12.2859 17.997 11.7856 17.6258 11.4197L18.4209 10.6242L17.6228 9.82629L16.7213 10.7281C16.4322 10.5642 16.2244 10.4975 16.1694 10.4815C15.5529 10.302 14.9202 10.391 14.3401 10.7391C13.0542 11.5106 13.3392 13.0318 13.5906 14.3739C13.8857 15.9499 14.0014 16.9492 13.1204 17.5365C12.7159 17.806 12.3376 17.8811 11.9641 17.7653C10.9848 17.4625 10.1904 15.9565 9.96724 15.4024C9.85152 15.1132 9.52329 14.9721 9.23377 15.0881C8.94442 15.2038 8.80366 15.5322 8.91943 15.8215C8.92944 15.8466 9.16952 16.442 9.60198 17.0987C9.70425 17.2539 9.80859 17.3987 9.91458 17.5347L9.24378 18.2055L10.0417 19.0035L10.7025 18.3428C11.0004 18.5765 11.3093 18.7437 11.6278 18.8426C11.85 18.9116 12.0756 18.9459 12.302 18.9459C12.7882 18.9459 13.278 18.7877 13.7463 18.4754C15.3115 17.432 14.9722 15.6211 14.6997 14.1661C14.4568 12.8692 14.3375 12.0567 14.9207 11.7067C15.2365 11.5173 15.5325 11.4721 15.852 11.5644C16.7211 11.8161 17.4929 13.0259 17.717 13.4709C17.8566 13.7491 18.1952 13.8619 18.4737 13.7226C18.7525 13.5832 18.8654 13.2443 18.7261 12.9655Z" fill="black"/>
    <path d="M21.9876 3.38562C20.743 3.38562 19.7305 4.39816 19.7305 5.64274C19.7305 6.88732 20.743 7.89985 21.9876 7.89985C23.2322 7.89985 24.2447 6.88732 24.2447 5.64274C24.2446 4.39816 23.2321 3.38562 21.9876 3.38562ZM21.9876 6.77127C21.3653 6.77127 20.8591 6.26497 20.8591 5.64274C20.8591 5.02045 21.3654 4.51421 21.9876 4.51421C22.6099 4.51421 23.1161 5.0205 23.1161 5.64274C23.1161 6.26503 22.6098 6.77127 21.9876 6.77127Z" fill="black"/>
    <path d="M27.6303 0.548844C27.6219 0.243305 27.3717 0 27.0663 0C27.0657 0 27.065 0 27.0644 0L14.6454 0.0400859C14.4963 0.0406328 14.3536 0.100023 14.2482 0.205406L1.00877 13.4448C-0.309148 14.7628 -0.307344 16.9089 1.01259 18.2289L9.7907 27.007C10.4302 27.6465 11.2799 27.9991 12.1832 28C12.1843 28 12.1853 28 12.1864 28C13.0888 28 13.9371 27.6487 14.5749 27.0109L27.8143 13.7715C27.9239 13.6619 27.9836 13.512 27.9794 13.3571L27.6303 0.548844ZM13.7769 26.2129C13.3522 26.6376 12.7874 26.8714 12.1864 26.8714C12.1857 26.8714 12.1849 26.8714 12.1843 26.8714C11.582 26.8709 11.0154 26.6355 10.5888 26.209L1.8107 17.431C0.930672 16.551 0.928977 15.1207 1.80688 14.2428L14.8817 1.16796L26.5171 1.13034L26.8446 13.1452L13.7769 26.2129Z" fill="black"/>
</svg>
