<svg width="28" height="28" viewBox="0 0 28 28" fill="none" xmlns="http://www.w3.org/2000/svg">
    <g clip-path="url(#clip0)">
        <path d="M16.9356 6.87717H16.9466V4.44035C16.9466 4.16905 16.713 3.92979 16.4416 3.92979H15.9642V0.510508C15.9642 0.239203 15.7305 0 15.4592 0H12.5118C12.2405 0 12.0343 0.239258 12.0343 0.510508V3.92984H11.5293C11.258 3.92984 11.0519 4.1691 11.0519 4.44041V6.87723H11.0353C9.14081 6.87723 7.61328 8.44036 7.61328 10.3379V24.5779C7.61328 26.4755 9.14081 28.0001 11.0353 28.0001H16.9356C18.8301 28.0001 20.3852 26.4755 20.3852 24.5779V10.3379C20.3852 8.44036 18.8302 6.87717 16.9356 6.87717ZM13.0168 2.94738H13.9855C14.2568 2.94738 14.4767 2.72743 14.4767 2.45618C14.4767 2.18493 14.2568 1.96498 13.9855 1.96498H13.0168V0.982461H14.9817V3.92984H13.0168V2.94738ZM12.0343 4.9123H12.5118H15.4592H15.9642V6.87723H12.0343V4.9123ZM19.4028 24.5778C19.4028 25.9337 18.2884 27.0175 16.9356 27.0175H11.0354C9.68255 27.0175 8.59574 25.9337 8.59574 24.5778V10.3379C8.59574 8.98204 9.68255 7.85963 11.0354 7.85963H11.5294H16.4417H16.9357C18.2885 7.85963 19.4028 8.98204 19.4028 10.3379V24.5778H19.4028Z" fill="black"/>
        <path d="M17.4387 12.772H10.5615C10.2902 12.772 10.0703 12.9919 10.0703 13.2632V21.6141C10.0703 21.8854 10.2903 22.1053 10.5615 22.1053H17.4387C17.71 22.1053 17.9299 21.8853 17.9299 21.6141V13.2632C17.9299 12.9919 17.71 12.772 17.4387 12.772ZM16.9475 21.1229H11.0527V13.7544H16.9474V21.1229H16.9475Z" fill="black"/>
    </g>
    <defs>
        <clipPath id="clip0">
            <rect width="28" height="28" fill="white"/>
        </clipPath>
    </defs>
</svg>
