<svg width="28" height="28" viewBox="0 0 28 28" fill="none" xmlns="http://www.w3.org/2000/svg">
    <g clip-path="url(#clip0)">
        <path d="M27.9911 21.7179C27.9579 21.5352 27.8371 21.38 27.6677 21.3031L23.803 19.5461L24.103 17.1969C24.1252 17.0224 24.0653 16.848 23.9413 16.7239L11.2766 4.05852C11.1437 3.92563 10.9559 3.86482 10.7682 3.90304L8.51708 4.33639L6.69686 0.332278C6.61986 0.162801 6.46482 0.0419416 6.28206 0.00874624C6.09874 -0.0237928 5.9116 0.0342306 5.77981 0.166027L0.16619 5.77975C0.0343928 5.911 -0.0237401 6.09875 0.00890838 6.28189C0.0421584 6.46477 0.162854 6.61981 0.33233 6.69664L4.33638 8.51703L3.90304 10.7681C3.86706 10.9531 3.92574 11.1434 4.05863 11.2763L11.1863 18.404C11.1871 18.407 11.1871 18.4099 11.1879 18.4129C11.2451 18.6073 11.3978 18.7466 11.5797 18.7976L16.7234 23.9411C16.8303 24.0482 16.9748 24.1074 17.1243 24.1074C17.1481 24.1074 17.172 24.1058 17.1963 24.103L19.5461 23.8028L21.3031 27.6676C21.3801 27.8371 21.5352 27.9578 21.7179 27.991C21.7517 27.9971 21.7854 27.9999 21.8192 27.9999C21.9682 27.9999 22.1127 27.9412 22.2201 27.8337L27.8337 22.22C27.9656 22.0888 28.0237 21.901 27.9911 21.7179ZM1.54678 6.00293L6.00299 1.54672L7.50706 4.85482L4.85504 7.507L1.54678 6.00293ZM5.30255 10.9167L5.07313 10.6872L5.50178 8.46387L8.46392 5.50161L10.6873 5.07314L13.8555 8.24124L5.32513 10.907C5.3171 10.9095 5.31031 10.9139 5.30255 10.9167ZM8.70493 14.319L6.20549 11.8196L14.7359 9.15386C14.7438 9.1514 14.7506 9.14708 14.7583 9.14435L17.2577 11.6438L8.72752 14.3094C8.71948 14.3119 8.7127 14.3163 8.70493 14.319ZM9.60788 15.222L18.1383 12.5562C18.1462 12.5538 18.1529 12.5495 18.1606 12.5467L20.652 15.0383L11.9761 17.5901L9.60788 15.222ZM19.4131 22.6209L19.3495 22.6848L17.3288 22.9428L12.8893 18.5032L21.5319 15.9614C21.5427 15.9581 21.5521 15.9526 21.5626 15.9488L22.9429 17.3291L22.6849 19.3493L22.6212 19.413L19.4131 22.6209ZM21.997 26.4532L20.4929 23.1449L23.1449 20.4929L26.4532 21.997L21.997 26.4532Z" fill="black"/>
    </g>
    <defs>
        <clipPath id="clip0">
            <rect width="28" height="28" fill="white"/>
        </clipPath>
    </defs>
</svg>
