<svg width="28" height="28" viewBox="0 0 28 28" fill="none" xmlns="http://www.w3.org/2000/svg">
    <path d="M22.1659 6.65093V3.26665H22.6325C22.8903 3.26665 23.0992 3.05791 23.0992 2.8V0.466648C23.0992 0.208687 22.8902 0 22.6325 0H17.0325C16.7748 0 16.5659 0.208742 16.5659 0.466648V2.8C16.5659 3.05796 16.7748 3.26665 17.0325 3.26665H17.4992V6.65044C15.8775 7.0688 14.6992 8.55586 14.6992 10.2648V13.5334V20.0667V27.5334C14.6992 27.7913 14.9082 28 15.1659 28H24.4992C24.757 28 24.9659 27.7913 24.9659 27.5334V20.0666V13.5334V10.2648C24.9659 8.5563 23.7876 7.0688 22.1659 6.65093ZM24.0326 27.0666H15.6326V20.5334H24.0326V27.0666ZM24.0326 19.6H15.6326V14H24.0326V19.6ZM24.0326 13.0666H15.6326V10.2648C15.6326 8.87988 16.6639 7.68906 18.0315 7.49492C18.2617 7.46211 18.4326 7.26523 18.4326 7.03281V2.8C18.4326 2.54204 18.2236 2.33335 17.9659 2.33335H17.4992V0.933352H22.1659V2.33335H21.6992C21.4415 2.33335 21.2326 2.54209 21.2326 2.8V7.03281C21.2326 7.26523 21.4035 7.46211 21.6336 7.49492C23.0012 7.6895 24.0326 8.88032 24.0326 10.2648V13.0666Z" fill="black"/>
    <path d="M8.6332 25.215V20.4976C11.2456 20.1423 13.2999 16.959 13.2999 12.9497C13.2999 12.6918 13.0909 12.5997 12.8332 12.5997H3.49985C3.24211 12.5997 3.0332 12.6918 3.0332 12.9497C3.0332 16.959 5.08754 20.1423 7.69985 20.4976V25.215C6.00924 25.3132 4.4332 25.9439 4.4332 27.0664C4.4332 27.3243 4.64216 27.533 4.89985 27.533H11.4332C11.6909 27.533 11.8999 27.3243 11.8999 27.0664C11.8999 25.9439 10.3238 25.3132 8.6332 25.215ZM3.97634 13.5331H12.3568C12.3398 13.5331 12.2984 14.0885 12.24 14.4664H4.0931C4.03464 14.0885 3.9933 13.5331 3.97634 13.5331ZM4.28495 15.3997H12.0481C11.4187 17.8601 9.91798 19.5997 8.1665 19.5997C6.41502 19.5997 4.9144 17.8601 4.28495 15.3997ZM5.84414 26.5997C6.31604 26.3532 7.11858 26.1331 8.16656 26.1331C9.21448 26.1331 10.017 26.3532 10.489 26.5997H5.84414Z" fill="black"/>
</svg>
